<?xml version="1.0" encoding="UTF-8"?>
<svg width="50px" height="50px" viewBox="0 0 50 50" version="1.1" xmlns="http://www.w3.org/2000/svg" xmlns:xlink="http://www.w3.org/1999/xlink">
    <!-- Generator: Sketch 43.1 (39012) - http://www.bohemiancoding.com/sketch -->
    <title>Artboard Copy</title>
    <desc>Created with Sketch.</desc>
    <defs></defs>
    <g id="Page-1" stroke="none" stroke-width="1" fill="none" fill-rule="evenodd">
        <g id="Artboard-Copy">
            <rect id="Rectangle-Copy" fill="#2ECC71" x="0" y="0" width="50" height="50" rx="5"></rect>
            <path d="M7.91308594,27.1044922 L11.2001953,27.1044922 L9.58300781,22.0068359 L7.91308594,27.1044922 Z M8.08007812,19.0449219 L11.1386719,19.0449219 L15.7265625,32 L12.7910156,32 L11.9560547,29.3369141 L7.18359375,29.3369141 L6.28710938,32 L3.45703125,32 L8.08007812,19.0449219 Z M19.1367188,19.0449219 L20.8505859,26.4628906 L21.2197266,28.5283203 L21.5976562,26.5068359 L23.0566406,19.0449219 L25.9130859,19.0449219 L27.4511719,26.4628906 L27.8466797,28.5283203 L28.2421875,26.5419922 L29.9736328,19.0449219 L32.7246094,19.0449219 L29.0771484,32 L26.4931641,32 L24.9287109,24.4238281 L24.4716797,21.9189453 L24.0146484,24.4238281 L22.4501953,32 L19.9365234,32 L16.2626953,19.0449219 L19.1367188,19.0449219 Z M34.4033203,19.0449219 L37.0664062,19.0449219 L37.0664062,24.3798828 L42.0673828,19.0449219 L45.5654297,19.0449219 L40.2568359,24.3798828 L45.8378906,32 L42.3574219,32 L38.3583984,26.3398438 L37.0664062,27.6669922 L37.0664062,32 L34.4033203,32 L34.4033203,19.0449219 Z" id="AWK" fill="#FFFFFF"></path>
        </g>
    </g>
</svg>