<svg id="Layer_1" xmlns="http://www.w3.org/2000/svg" viewBox="-146 226 50 50"><style>.st0{fill:#5f0db7}.st1{fill:#fff}.st2{fill:#530cba}</style><path class="st0" d="M-100.7 276h-40.7c-2.6 0-4.7-2.1-4.7-4.7v-40.7c0-2.6 2.1-4.7 4.7-4.7h40.7c2.6 0 4.7 2.1 4.7 4.7v40.7c0 2.6-2.1 4.7-4.7 4.7z"/><path class="st1" d="M-110.3 246h-21.4l-.2.6c-.2.9-.3 1.8-.3 2.7v11.3h2.9v.2c.2 3.2 2.8 5.7 6 5.7h.4v5.2h13.1v-22.4c0-.9-.1-1.8-.3-2.7l-.2-.6z"/><circle class="st2" cx="-126" cy="254.1" r="1.4"/><path class="st1" d="M-123.4 240.8c.3 0 .5-.2.5-.5v-2.8h5.3v-4.9h3.4v1.2h3.4v-3.4h-3.4v1.3h-4.3v4.9h-5.3v3.7c-.1.3.1.5.4.5zm10-9.5h1.5v1.5h-1.5v-1.5zM-129.2 236.7c.3 0 .5-.2.5-.5v-3.6h4.1v1.2h3.4v-3.4h-3.4v1.3h-5.1v4.6c0 .2.2.4.5.4zm5.5-5.4h1.5v1.5h-1.5v-1.5zM-119.7 241.7c-.3 0-.5.2-.5.5s.2.5.5.5h8.1v-3.1h1.2v-3.4h-3.4v3.4h1.2v2.2c.1-.1-7.1-.1-7.1-.1zm6.9-3.1v-1.5h1.5v1.5h-1.5zM-130.2 244.4h9.3c.3 0 .5-.2.5-.5s-.2-.5-.5-.5h-8.3v-1.8h1.2v-3.4h-3.4v3.4h1.2v2.8zm-.2-3.7v-1.5h1.5v1.5h-1.5z"/></svg>