<?xml version="1.0" encoding="UTF-8"?>
<svg width="50px" height="50px" viewBox="0 0 50 50" version="1.1" xmlns="http://www.w3.org/2000/svg" xmlns:xlink="http://www.w3.org/1999/xlink">
    <!-- Generator: Sketch 43.1 (39012) - http://www.bohemiancoding.com/sketch -->
    <title>Artboard Copy 16</title>
    <desc>Created with Sketch.</desc>
    <defs></defs>
    <g id="Page-1" stroke="none" stroke-width="1" fill="none" fill-rule="evenodd">
        <g id="Artboard-Copy-16">
            <g id="c-logo" transform="translate(3.000000, 0.000000)" fill-rule="nonzero" fill="#8B48A7">
                <path d="M43.6,12.4 C43.4,11.9 43.1,11.7 42.8,11.5 L23.3,0.3 C23,0.1 22.5,0 22,0 C21.5,0 21.1,0.1 20.7,0.3 L1.3,11.6 C0.6,12 0.1,13 0.1,13.8 L0.1,36.3 C0.1,36.7 0.2,37.4 0.4,37.7 C0.6,38 0.9,38.3 1.2,38.5 L20.5,49.5 C20.8,49.7 21.5,50 21.9,50 C22.4,50 23,49.7 23.3,49.6 L42.5,38.5 C43.2,38.1 43.7,37.1 43.7,36.3 L43.7,13.7 C43.8,13.7 43.8,12.7 43.6,12.4 Z M22,34.9 C25.7,34.9 28.9,32.9 30.6,29.9 L35.8,33 C33.1,37.8 27.9,41 22,41 C13.2,41 6,33.8 6,25 C6,16.2 13.2,9 22,9 C27.9,9 33.1,12.3 35.9,17.1 L30.6,20.1 C28.9,17.1 25.7,15 22,15 C16.5,15 12.1,19.4 12.1,24.9 C12.1,30.4 16.6,34.9 22,34.9 Z" id="Shape"></path>
            </g>
            <rect id="Rectangle-2" fill="#FFFFFF" x="33" y="22" width="1" height="6"></rect>
            <rect id="Rectangle-2-Copy" fill="#FFFFFF" x="36" y="22" width="1" height="6"></rect>
            <rect id="Rectangle-2" fill="#FFFFFF" transform="translate(35.000000, 23.500000) rotate(-270.000000) translate(-35.000000, -23.500000) " x="34.5" y="20.5" width="1" height="6"></rect>
            <rect id="Rectangle-2-Copy" fill="#FFFFFF" transform="translate(35.000000, 26.500000) rotate(-270.000000) translate(-35.000000, -26.500000) " x="34.5" y="23.5" width="1" height="6"></rect>
        </g>
    </g>
</svg>