<svg xmlns="http://www.w3.org/2000/svg" viewBox="0 0 512 512"><defs><style>.a{fill:#1de3eb;}.b{fill:#fff;}.c{fill:#87d2f3;}.d{fill:#2170a6;}</style></defs><g transform="translate(-2697 3202)"><circle class="a" cx="256" cy="256" r="256" transform="translate(2697 -3202)"/><g transform="translate(2801.611 -3097.889)"><path class="b" d="M301.083,96V310.656A25.254,25.254,0,0,1,275.83,335.91H35.92a25.254,25.254,0,0,1-25.254-25.254V96Z" transform="translate(-4.353 -39.179)"/><path class="c" d="M301.084,35.92V61.174H10.667V35.92A25.254,25.254,0,0,1,35.921,10.666h239.91A25.254,25.254,0,0,1,301.084,35.92Z" transform="translate(-4.353 -4.353)"/><g transform="translate(44.194 82.075)"><path class="b" d="M192,138.667h75.761v25.254H192Z" transform="translate(-122.553 -138.667)"/><path class="b" d="M330.667,394.667H393.8v37.88H330.667Z" transform="translate(-179.145 -243.145)"/><path class="b" d="M74.667,394.667H137.8v37.88H74.667Z" transform="translate(-74.667 -243.145)"/></g><g transform="translate(44.194 151.522)"><path class="c" d="M352,266.667h37.881v37.881H352Z" transform="translate(-187.851 -260.353)"/><path class="c" d="M74.667,266.667h37.88v37.881H74.667Z" transform="translate(-74.667 -260.353)"/><ellipse class="c" cx="25.254" cy="25.254" rx="25.254" ry="25.254" transform="translate(82.074)"/></g><path class="d" d="M271.477,0H31.567A31.6,31.6,0,0,0,0,31.567v239.91a31.6,31.6,0,0,0,31.567,31.567h239.91a31.6,31.6,0,0,0,31.567-31.567V31.567A31.6,31.6,0,0,0,271.477,0Zm18.94,271.477a18.94,18.94,0,0,1-18.94,18.94H31.567a18.94,18.94,0,0,1-18.94-18.94V31.567a18.94,18.94,0,0,1,18.94-18.94h239.91a18.94,18.94,0,0,1,18.94,18.94v239.91Z"/><path class="d" d="M42.667,85.333H295.2V97.96H42.667Z" transform="translate(-17.413 -34.826)"/><path class="d" d="M53.333,42.667H65.96V55.294H53.333Z" transform="translate(-21.766 -17.413)"/><path class="d" d="M96,42.667h12.627V55.294H96Z" transform="translate(-39.179 -17.413)"/><path class="d" d="M437.333,42.667H449.96V55.294H437.333Z" transform="translate(-178.483 -17.413)"/><path class="d" d="M269.721,159.566V134.313A6.314,6.314,0,0,0,263.408,128H187.647a6.314,6.314,0,0,0-6.314,6.314v25.254a6.314,6.314,0,0,0,6.314,6.314h75.761A6.314,6.314,0,0,0,269.721,159.566Zm-12.627-6.313H193.96V140.627h63.134v12.627Z" transform="translate(-74.005 -52.239)"/><path class="d" d="M133.447,384H70.314A6.314,6.314,0,0,0,64,390.314v37.88a6.314,6.314,0,0,0,6.314,6.314h63.134a6.314,6.314,0,0,0,6.314-6.314v-37.88A6.315,6.315,0,0,0,133.447,384Zm-6.313,37.88H76.627V396.627h50.507V421.88Z" transform="translate(-26.119 -156.717)"/><path class="d" d="M108.194,256H70.314A6.314,6.314,0,0,0,64,262.314v37.881a6.314,6.314,0,0,0,6.314,6.314h37.881a6.314,6.314,0,0,0,6.314-6.314V287.567h18.94V274.94h-18.94V262.314A6.314,6.314,0,0,0,108.194,256Zm-6.314,37.881H76.627V268.627h25.254Z" transform="translate(-26.119 -104.478)"/><path class="d" d="M389.447,384H326.314A6.314,6.314,0,0,0,320,390.314v37.88a6.314,6.314,0,0,0,6.314,6.314h63.134a6.314,6.314,0,0,0,6.314-6.314v-37.88A6.315,6.315,0,0,0,389.447,384Zm-6.313,37.88H332.627V396.627h50.507Z" transform="translate(-130.597 -156.717)"/><path class="d" d="M265.774,263.841A31.625,31.625,0,0,0,240.52,232.9V213.333H227.894V232.9a31.567,31.567,0,0,0,0,61.872v38.511h-18.94v12.627h50.507V333.288H240.52V294.776a31.623,31.623,0,0,0,25.254-30.935Zm-50.507,0a18.94,18.94,0,1,1,18.94,18.94A18.94,18.94,0,0,1,215.267,263.841Z" transform="translate(-82.685 -87.065)"/><path class="d" d="M372.9,319.134V306.508h12.627a6.314,6.314,0,0,0,6.314-6.314V262.314A6.314,6.314,0,0,0,385.527,256h-37.88a6.314,6.314,0,0,0-6.314,6.314v37.881a6.314,6.314,0,0,0,6.314,6.314h12.627v12.627Zm-18.94-50.508h25.254v25.254H353.96Z" transform="translate(-139.304 -104.478)"/><path class="d" d="M245.333,288H257.96v12.627H245.333Z" transform="translate(-100.125 -117.538)"/><path class="d" d="M53.333,181.333H103.84V193.96H53.333Z" transform="translate(-21.766 -74.005)"/><path class="d" d="M117.333,138.667H129.96v12.627H117.333Z" transform="translate(-47.886 -56.592)"/><path class="d" d="M74.667,138.667H87.294v12.627H74.667Z" transform="translate(-30.473 -56.592)"/><path class="d" d="M373.333,181.333H423.84V193.96H373.333Z" transform="translate(-152.364 -74.005)"/><path class="d" d="M373.333,138.667H385.96v12.627H373.333Z" transform="translate(-152.364 -56.592)"/><path class="d" d="M416,138.667h12.627v12.627H416Z" transform="translate(-169.777 -56.592)"/></g></g></svg>