<?xml version="1.0" encoding="UTF-8" standalone="no"?>
<svg width="445px" height="445px" viewBox="0 0 445 445" version="1.1" xmlns="http://www.w3.org/2000/svg" xmlns:xlink="http://www.w3.org/1999/xlink">
    <!-- Generator: Sketch 47.1 (45422) - http://www.bohemiancoding.com/sketch -->
    <title>iPhone 8</title>
    <desc>Created with Sketch.</desc>
    <defs>
        <linearGradient x1="19.1967233%" y1="12.3222328%" x2="82.4813147%" y2="85.5908915%" id="linearGradient-1">
            <stop stop-color="#6B8FFF" offset="0%"></stop>
            <stop stop-color="#9434CF" offset="100%"></stop>
        </linearGradient>
    </defs>
    <g id="Page-1" stroke="none" stroke-width="1" fill="none" fill-rule="evenodd">
        <g id="iPhone-8">
            <g id="Emacs-new" transform="translate(222.500000, 223.500000) rotate(-11.000000) translate(-222.500000, -223.500000) translate(3.000000, 4.000000)" fill-rule="nonzero">
                <path d="M438.1,219.2 C437.6,340.6 340,438.2 218.7,438 C97.3,437.8 -0.2,339.9 0,218.8 C0.1,97.4 98.1,-0.2 219.3,0 C340.5,0.2 437.8,98 438.1,219.2 Z M234.6,87.2 C234.6,87.4 234.5,87.5 234.5,87.7 C235.3,87.9 236,88.1 236.8,88.2 C248.3,90.6 259.9,92.7 271.3,95.6 C279.1,97.6 286.8,100.5 294.3,103.4 C296.8,104.3 299,106.3 300.9,108.2 C302.9,110.2 302.4,112.9 300.1,114.5 C298.9,115.3 297.5,116 296.1,116.2 C293.1,116.7 290,117.1 286.9,117.1 C262.2,117.4 238,113.7 213.7,109.6 C202.9,107.8 192.2,106.1 181.2,106.5 C175.5,106.7 169.8,107.3 164.6,109.7 C157.8,112.8 154.8,118.5 156.3,125.8 C157,129.3 158.1,132.7 159.6,135.9 C165.9,149.2 175.2,160.4 185.9,170.4 C201.2,184.7 218.6,196.1 236.6,206.7 C237.4,207.2 238.1,207.6 238.9,208.1 C229.2,204.9 219.3,203.1 209.3,202.1 C196.2,200.8 183.2,200.8 170.1,202 C156,203.3 142.1,205.7 128.6,210.4 C119,213.8 109.9,218 102.7,225.4 C94.8,233.5 92.5,243 96.9,253.4 C99.1,258.6 102.2,263.7 105.7,268.2 C117.3,283.1 132.5,293.7 149.1,302.3 C178.8,317.6 210.5,325.9 243.9,328.2 C247.9,328.5 251.8,329.9 255.6,331.2 C257,331.7 257.9,333.4 259,334.6 C257.8,335.5 256.6,336.6 255.2,337.3 C254,337.9 252.6,338.2 251.2,338.3 C238.4,339.3 225.6,340.7 212.8,341.1 C189,341.8 165.1,341.9 141.3,342.3 C140.7,342.3 140.2,342.4 139.6,342.5 C140.1,343 140.7,343.3 141.2,343.4 C148.4,344.9 155.6,346.8 162.9,347.7 C178.8,349.5 194.8,351.1 210.7,352.2 C233.8,353.8 257,354.5 280.2,352.7 C291.1,351.8 301.9,350.4 312.1,346.3 C315.1,345.1 318,343.5 320.5,341.5 C324.1,338.7 324.2,335.1 321.3,331.7 C319.9,330.1 318.2,328.5 316.4,327.4 C313,325.3 309.5,323.4 305.9,321.8 C293.9,316.5 281.2,313.2 268.5,310 C249.9,305.4 231.2,301.1 212.7,296.3 C200.4,293.1 188.5,288.9 177.3,282.7 C172.2,279.8 167.3,276.6 163.5,272 C158.3,265.7 158.2,259.1 163.8,253.1 C166.4,250.3 169.5,247.7 172.8,245.8 C190.2,235.6 209.2,231.1 229.4,230.6 C248.9,230.2 268.4,229.3 287.9,228.5 C290.9,228.4 294,228.2 297.7,228 C296.5,227.1 295.9,226.5 295.2,226 C270.8,207.3 246.3,188.7 221.9,169.9 C218.3,167.1 214.9,163.8 211.8,160.3 C210,158.3 208.7,155.7 207.6,153.2 C206.3,150 207.2,147.2 210.1,145.3 C212.2,143.9 214.5,142.6 216.9,142.2 C223.9,141.1 231.1,140 238.2,139.8 C256.7,139.3 275,141.2 293.2,145.2 C301.7,147.1 310.2,148.8 319,148 C332.3,146.8 342.6,136.1 342.8,122.7 C343.1,106.9 335.3,95.8 321.6,88.8 C312.2,84 302,83.3 291.6,84 C283.2,84.5 274.9,84.9 266.5,85.3 C256,86.2 245.3,86.7 234.6,87.2 Z" id="Shape" fill="url(#linearGradient-1)"></path>
                <path d="M234.6,87.2 C245.3,86.7 256,86.1 266.8,85.6 C275.2,85.2 283.5,84.8 291.9,84.3 C302.3,83.7 312.5,84.3 321.9,89.1 C335.6,96.2 343.4,107.2 343.1,123 C342.9,136.4 332.6,147.1 319.3,148.3 C310.5,149.1 301.9,147.4 293.5,145.5 C275.4,141.5 257.1,139.6 238.5,140.1 C231.4,140.3 224.3,141.4 217.2,142.5 C214.8,142.9 212.5,144.2 210.4,145.6 C207.5,147.5 206.6,150.3 207.9,153.5 C208.9,156 210.3,158.6 212.1,160.6 C215.2,164 218.5,167.3 222.2,170.2 C246.6,189 271,207.6 295.5,226.3 C296.2,226.8 296.8,227.4 298,228.3 C294.3,228.5 291.2,228.7 288.2,228.8 C268.7,229.5 249.2,230.5 229.7,230.9 C209.5,231.3 190.6,235.9 173.1,246.1 C169.8,248 166.7,250.6 164.1,253.4 C158.5,259.4 158.6,266 163.8,272.3 C167.6,276.9 172.5,280.2 177.6,283 C188.8,289.2 200.7,293.4 213,296.6 C231.5,301.4 250.2,305.8 268.8,310.3 C281.5,313.4 294.2,316.8 306.2,322.1 C309.8,323.7 313.3,325.7 316.7,327.7 C318.5,328.8 320.2,330.4 321.6,332 C324.6,335.4 324.4,339 320.8,341.8 C318.3,343.8 315.4,345.4 312.4,346.6 C302.2,350.7 291.4,352.1 280.5,353 C257.3,354.9 234.1,354.1 211,352.5 C195,351.4 179.1,349.8 163.2,348 C155.9,347.2 148.7,345.2 141.5,343.7 C141,343.6 140.4,343.3 139.9,342.8 C140.5,342.7 141,342.6 141.6,342.6 C165.4,342.2 189.3,342.1 213.1,341.4 C225.9,341 238.7,339.6 251.5,338.6 C252.9,338.5 254.3,338.2 255.5,337.6 C256.9,336.9 258,335.8 259.3,334.9 C258.2,333.7 257.3,332 255.9,331.5 C252.1,330.2 248.1,328.8 244.2,328.5 C210.9,326.1 179.2,317.9 149.4,302.6 C132.8,294 117.6,283.4 106,268.5 C102.5,264 99.4,258.9 97.2,253.7 C92.8,243.3 95.2,233.8 103,225.7 C110.2,218.3 119.4,214 128.9,210.7 C142.3,206 156.2,203.6 170.4,202.3 C183.5,201.1 196.6,201.1 209.6,202.4 C219.6,203.4 229.5,205.2 239.2,208.4 C238.4,207.9 237.7,207.5 236.9,207 C218.9,196.4 201.5,185 186.2,170.7 C175.5,160.7 166.2,149.5 159.9,136.2 C158.4,133 157.3,129.5 156.6,126.1 C155.1,118.8 158.1,113.2 164.9,110 C170.2,107.6 175.8,106.9 181.5,106.8 C192.5,106.5 203.2,108.1 214,109.9 C238.2,113.9 262.5,117.7 287.2,117.4 C290.3,117.4 293.4,117 296.4,116.5 C297.8,116.3 299.2,115.6 300.4,114.8 C302.7,113.2 303.2,110.4 301.2,108.5 C299.3,106.6 297.1,104.6 294.6,103.7 C287,100.8 279.4,97.9 271.6,95.9 C260.2,93 248.6,90.9 237.1,88.5 C236.3,88.3 235.6,88.1 234.8,88 C234.5,87.5 234.5,87.4 234.6,87.2 Z" id="Shape" fill="#FFFFFF"></path>
            </g>
            <circle id="Oval" stroke="#4A246B" stroke-width="8" cx="222.5" cy="222.5" r="214.5"></circle>
        </g>
    </g>
</svg>