<svg id="Layer_1" xmlns="http://www.w3.org/2000/svg" viewBox="-146 226 50 50"><style>.st0{fill:#eb1e25}</style><path class="st0" d="M-99 250.7l-.6-1.4-1.3-2.8-.1-.2c-.2-.3-.5-.5-.8-.5-.4 0-.7.2-.8.5l-.1.2-1.3 2.8-.6 1.4-.1.2-1.5 3.3c.8 0 1.5-.5 1.9-1.1l.1-.1.4-.8h4.2l.4.8.1.3c.4.6 1 1.1 1.8 1.1l-1.7-3.7zm-4.5.2l1.4-3.1.2-.3.2.3.5 1.1.9 1.9v.1h-3.2zM-97.3 253.7c-.1 0-.2-.1-.2-.1-.1-.1-.1-.1-.1-.2s-.1-.2-.1-.2c0-.1 0-.2.1-.2 0-.1.1-.1.2-.2s.1-.1.2-.1h.6c.1 0 .2.1.2.1.1.1.1.1.1.2s.1.2.1.2c0 .1 0 .2-.1.3-.1.1-.1.2-.3.2-.1.1-.2.1-.3.1-.2-.1-.3-.1-.4-.1zm-.2-.3c0 .1.1.1.2.2.1 0 .2.1.3.1.1 0 .2 0 .3-.1.1 0 .2-.1.2-.2s.1-.2.1-.3v-.2c0-.1-.1-.1-.1-.2 0 0-.1-.1-.2-.1h-.4c-.1 0-.1.1-.2.1s-.1.1-.1.2v.2c-.2.1-.1.2-.1.3zm.3 0h-.1v-.7h.5s.1.1.1.2 0 .1-.1.1c0 0-.1 0-.1.1l.2.3h-.1l-.2-.3h-.1v.3zm.2-.3h.1v-.1c0-.1-.1-.1-.2-.1h-.2v.2h.3zM-106.6 247.1v7c-.7 0-1.2-.5-1.2-1.2v-7c.6-.1 1.2.5 1.2 1.2zM-108.1 245.8c0 .7-.5 1.2-1.2 1.2h-2.6v7c-.7 0-1.2-.5-1.2-1.2V247h-2.6c-.7 0-1.2-.5-1.2-1.2h8.8z"/><path class="st0" d="M-114.8 251.1c0 1.7-1.5 3-3.2 3-.4 0-.7-.1-1.1-.2-.6-.4-.8-1.1-.5-1.7.4.4.9.7 1.6.7 1.1 0 2-.8 2-1.8s-.9-1.8-2-1.8-2 .8-2 1.8v3.9c0 .7-.6 1.2-1.2 1.2v-5.1-.3c.2-1.5 1.5-2.7 3.2-2.7 1.8 0 3.2 1.4 3.2 3zM-121.8 250.5v3.6c-.7 0-1.2-.5-1.2-1.2v-2.4c0-.6-.5-1.1-1.1-1.1-.6 0-1.1.5-1.1 1.1v3.6c-.7 0-1.2-.5-1.2-1.2v-2.6.1c0-.6-.5-1.1-1.1-1.1-.6 0-1.1.5-1.1 1.1v2.4c0 .7-.6 1.2-1.2 1.2v-3.6c0-.9.5-1.7 1.2-2.1.3-.2.7-.3 1.1-.3.4 0 .8.1 1.1.3.2.1.4.3.6.5.2-.2.4-.4.6-.5.3-.2.7-.3 1.1-.3.4 0 .8.1 1.1.3.7.5 1.2 1.3 1.2 2.2zM-133.7 248.1c-1.8 0-3.3 1.3-3.3 3s1.5 3 3.3 3c1.8 0 3.3-1.3 3.3-3 0-1.6-1.5-3-3.3-3zm0 4.8c-1.2 0-2.1-.8-2.1-1.8s.9-1.8 2.1-1.8c1.2 0 2.1.8 2.1 1.8s-.9 1.8-2.1 1.8z"/><path class="st0" d="M-137.1 252.2c-.8 1.2-2.3 2-3.9 2-2.5 0-4.6-1.9-4.6-4.2s2.1-4.2 4.6-4.2c1.9 0 3.5 1 4.2 2.5-.5.3-1.2.3-1.6-.1l-.1-.1c-.6-.7-1.6-1.1-2.6-1.1-1.9 0-3.4 1.3-3.4 3s1.5 3 3.4 3c.9 0 1.8-.3 2.4-.9.5-.3 1.1-.3 1.6.1z"/></svg>