<?xml version="1.0" encoding="UTF-8" standalone="no"?>
<svg width="100px" height="98px" viewBox="0 0 100 98" version="1.1" xmlns="http://www.w3.org/2000/svg" xmlns:xlink="http://www.w3.org/1999/xlink">
    <!-- Generator: Sketch 47.1 (45422) - http://www.bohemiancoding.com/sketch -->
    <title>mat</title>
    <desc>Created with Sketch.</desc>
    <defs>
        <linearGradient x1="44.169799%" y1="42.7584374%" x2="52.910348%" y2="64.7565318%" id="linearGradient-1">
            <stop stop-color="#3594D3" offset="0%"></stop>
            <stop stop-color="#48111B" offset="100%"></stop>
        </linearGradient>
        <radialGradient cx="58.7277087%" cy="28.5967737%" fx="58.7277087%" fy="28.5967737%" r="13.1049314%" gradientTransform="translate(0.587277,0.285968),scale(1.000000,0.879816),rotate(180.000000),scale(1.000000,3.633794),translate(-0.587277,-0.285968)" id="radialGradient-2">
            <stop stop-color="#FFD100" offset="0%"></stop>
            <stop stop-color="#B9170D" offset="100%"></stop>
        </radialGradient>
        <filter x="-34.2%" y="-24.6%" width="168.4%" height="149.3%" filterUnits="objectBoundingBox" id="filter-3">
            <feGaussianBlur stdDeviation="6" in="SourceGraphic"></feGaussianBlur>
        </filter>
        <filter x="-42.9%" y="-15.0%" width="185.7%" height="130.0%" filterUnits="objectBoundingBox" id="filter-4">
            <feGaussianBlur stdDeviation="1" in="SourceGraphic"></feGaussianBlur>
        </filter>
    </defs>
    <g id="Page-1" stroke="none" stroke-width="1" fill="none" fill-rule="evenodd">
        <g id="mat">
            <polygon id="XMLID_3_" fill="#469CD6" fill-rule="nonzero" points="0 51.5 28.5 40 52.1 52.2 20.2 65.9"></polygon>
            <path d="M28.5,40 C28.5,40 34.3,31.8 37.6,29.9 C40.9,28 43.9,28.2 45.9,26.4 C47.9,24.6 50.8,21.5 53,19 C55.2,16.5 60.3,8.7 60.3,8.7 L61.9,16.9 L46.9,55.7 L28.5,40 Z" id="XMLID_2_" fill="url(#linearGradient-1)" fill-rule="nonzero"></path>
            <path d="M20.2,65.9 C20.2,65.9 39.7,57.5 50,33.9 C60.3,10.3 61.9,0.5 67.1,0.6 C72.3,0.7 78,15.5 80.6,23 C83.1,30.6 91.9,55.1 94.1,60.7 C96.3,66.4 100,75 100,75 C100,75 92.1,65.2 83.8,62.4 C75.5,59.6 67,71.1 67,71.1 C67,71.1 59.2,80.6 55.4,84.2 C51.6,87.8 43.5,91.3 43.5,91.3 C43.5,91.3 36,72.2 32,68 C28,63.8 20.2,65.9 20.2,65.9 Z" id="XMLID_1_" fill="url(#radialGradient-2)" fill-rule="nonzero"></path>
            <path d="" id="Path-2" stroke="#979797"></path>
            <path d="M35.8915616,66.4874373 C39.9125623,68.3835876 42.513055,71.0514742 43.6930395,74.4910969 C44.873024,77.9307197 45.8513335,81.9605036 46.627968,86.5804487 C56.8000376,73.5957083 64.2287552,65.1667689 68.9141209,61.2936307 C73.5994865,57.4204924 80.1394326,56.8971799 88.5339591,59.7236933 C83.6127559,51.4125442 79.379329,41.5446441 75.8336785,30.1199929 C70.5152026,12.9830162 66.858402,9.30974164 64.6775983,18.2491968 C62.4967947,27.1886519 56.2588974,50.8448792 51.7301204,58.3056222 C48.7109357,63.2794508 43.4314161,66.0067225 35.8915616,66.4874373 Z" id="Path-3" fill="#FFD20D" filter="url(#filter-3)"></path>
            <ellipse id="Oval" fill="#FFFA00" filter="url(#filter-4)" cx="67.5" cy="19" rx="3.5" ry="10"></ellipse>
        </g>
    </g>
</svg>