<svg xmlns="http://www.w3.org/2000/svg" xmlns:xlink="http://www.w3.org/1999/xlink" viewBox="0 0 200 200">
  <defs>
    <style>
      .cls-1 {
        clip-path: url(#clip-coding-for-kids);
      }

      .cls-2 {
        fill: #ffa200;
      }

      .cls-3 {
        fill: #ffd7a3;
      }

      .cls-4 {
        fill: #fdc88e;
      }

      .cls-5 {
        fill: #734a3e;
      }

      .cls-6 {
        fill: #623f33;
      }

      .cls-7 {
        fill: #ffe1b2;
      }

      .cls-8 {
        fill: #e4b07b;
      }

      .cls-9 {
        fill: #b97e63;
      }

      .cls-10 {
        fill: #c97727;
      }

      .cls-11 {
        fill: #f88a52;
      }

      .cls-12 {
        fill: #d48f60;
      }

      .cls-13 {
        fill: #c57e52;
      }

      .cls-14 {
        fill: #43a0c5;
      }

      .cls-15 {
        fill: #57b9dd;
      }

      .cls-16 {
        fill: #ca8357;
      }

      .cls-17 {
        fill: #69bc45;
      }

      .cls-18 {
        fill: #fff;
      }
    </style>
    <clipPath id="clip-coding-for-kids">
      <rect width="200" height="200"/>
    </clipPath>
  </defs>
  <g id="coding-for-kids" class="cls-1">
    <rect class="cls-18" width="200" height="200"/>
    <g id="Group_466" data-name="Group 466">
      <rect id="Rectangle_351" data-name="Rectangle 351" class="cls-2" width="200" height="200"/>
      <g id="_002-boy" data-name="002-boy" transform="translate(27.008 111.552)">
        <path id="Path_319" data-name="Path 319" class="cls-3" d="M129.616,79.982l-1.887-15.1a5.965,5.965,0,0,0-4.033-4.919l-7.278-2.426a2.983,2.983,0,0,0-2.867.536l-2.144-.715a2.982,2.982,0,0,1-2.039-2.829V49.719l6.423-2.676a8.947,8.947,0,0,0,5.506-8.259V37.292a4.473,4.473,0,0,0,3.188-7.611l1.572-12.58A15.2,15.2,0,0,0,110.973.013s-21.34,0-21.433.011a8.943,8.943,0,0,0-7.3,4.462h-.418a7.507,7.507,0,0,0-7.594,8.122c0,.031.007.063.011.094l2.122,16.978a4.473,4.473,0,0,0,3.188,7.611v1.491a8.947,8.947,0,0,0,5.506,8.259l6.424,2.676v4.809a2.982,2.982,0,0,1-2.039,2.829l-2.144.715a2.983,2.983,0,0,0-2.867-.536l-7.278,2.426a5.965,5.965,0,0,0-4.033,4.919l-1.887,15.1a4.474,4.474,0,0,0,4.439,5.028h49.512A4.474,4.474,0,0,0,129.616,79.982Z" transform="translate(-71.191 -0.011)"/>
        <path id="Path_320" data-name="Path 320" class="cls-4" d="M173.7,270.947v0c0,.072,0,.143-.009.214,0,.037-.007.075-.012.112s-.006.059-.011.088c-.008.057-.018.114-.03.17v0a2.982,2.982,0,0,1-1.384,1.964c12.475,2.155,19.339-7.487,19.339-7.487H173.7v4.933Z" transform="translate(-153.417 -216.43)"/>
        <path id="Path_321" data-name="Path 321" class="cls-5" d="M292.178,2.324A15.2,15.2,0,0,0,284.12.013h-.113V31.328h13.421L299.206,17.1A15.2,15.2,0,0,0,292.178,2.324Z" transform="translate(-244.338 -0.011)"/>
        <g id="Group_442" data-name="Group 442" transform="translate(2.987 4.476)">
          <path id="Path_322" data-name="Path 322" class="cls-6" d="M87.26,32.135c0,.031.007.063.011.094L89.6,50.854h8.947V24.013H94.855A7.507,7.507,0,0,0,87.26,32.135Z" transform="translate(-87.215 -24.013)"/>
        </g>
        <path id="Path_323" data-name="Path 323" class="cls-7" d="M138.234,106.451v-2.982a7.456,7.456,0,0,0-7.456-7.456H103.936a7.456,7.456,0,0,0-7.456,7.456v2.982a4.474,4.474,0,0,0,0,8.947v1.491a8.947,8.947,0,0,0,5.506,8.259l9.635,4.015a14.91,14.91,0,0,0,5.735,1.147h0a14.913,14.913,0,0,0,5.735-1.147l9.636-4.015a8.947,8.947,0,0,0,5.506-8.259V115.4a4.473,4.473,0,1,0,0-8.947Z" transform="translate(-88.127 -78.116)"/>
        <g id="Group_443" data-name="Group 443" transform="translate(17.301 29.826)">
          <path id="Path_324" data-name="Path 324" class="cls-6" d="M165.5,164.487h0A1.5,1.5,0,0,1,164.007,163V161.5a1.5,1.5,0,0,1,1.491-1.491h0a1.5,1.5,0,0,1,1.491,1.491V163A1.5,1.5,0,0,1,165.5,164.487Z" transform="translate(-164.007 -160.013)"/>
        </g>
        <g id="Group_444" data-name="Group 444" transform="translate(38.177 29.826)">
          <path id="Path_325" data-name="Path 325" class="cls-6" d="M277.5,164.487h0A1.5,1.5,0,0,1,276.007,163V161.5a1.5,1.5,0,0,1,1.491-1.491h0a1.5,1.5,0,0,1,1.491,1.491V163A1.5,1.5,0,0,1,277.5,164.487Z" transform="translate(-276.007 -160.013)"/>
        </g>
        <g id="Group_446" data-name="Group 446" transform="translate(21.774 40.264)">
          <g id="Group_445" data-name="Group 445" transform="translate(0)">
            <path id="Path_326" data-name="Path 326" class="cls-8" d="M195.462,220.526a12.42,12.42,0,0,1-6.8-1.79,1.491,1.491,0,0,1,1.678-2.465,10.953,10.953,0,0,0,10.252,0,1.491,1.491,0,0,1,1.678,2.465A12.421,12.421,0,0,1,195.462,220.526Z" transform="translate(-188.006 -216.011)"/>
          </g>
        </g>
        <path id="Path_327" data-name="Path 327" class="cls-3" d="M130.778,96.013H103.936a7.353,7.353,0,0,0-1.491.153v0a7.458,7.458,0,0,0-5.965,7.306v2.982a4.474,4.474,0,0,0,0,8.947v1.491a8.947,8.947,0,0,0,5.506,8.259l9.635,4.015a14.941,14.941,0,0,0,1.44.512,62.236,62.236,0,0,1-8.753-7.618,6.99,6.99,0,0,1-1.863-4.776v-16.9c8.279,6.606,26.134,6.072,35.788,6.072v-2.982A7.456,7.456,0,0,0,130.778,96.013Z" transform="translate(-88.127 -78.116)"/>
        <path id="Path_328" data-name="Path 328" class="cls-5" d="M153.831,0H132.954a8.947,8.947,0,0,0-8.947,8.947h0c0,8.621,8.2,13.841,14.912,16.4,0,0-.748-1.366-1.756-3.385,5.952,1.991,15.144,3.385,27.666,3.385V21.066C164.828-.681,153.831,0,153.831,0Z" transform="translate(-114.162 0)"/>
        <path id="Path_329" data-name="Path 329" class="cls-5" d="M154.564,140.752h-7.608l-.015,0a5.96,5.96,0,0,0-8.632,3.666,5.216,5.216,0,0,0-9.363,0,5.961,5.961,0,0,0-8.629-3.667h-7.566a.746.746,0,0,0,0,1.491h5.792a5.963,5.963,0,1,0,10.428,5.2.737.737,0,0,0,.928-.72,3.728,3.728,0,1,1,7.456,0,.737.737,0,0,0,.928.72,5.964,5.964,0,1,0,10.428-5.2h5.851a.746.746,0,1,0,0-1.491Zm-31.374,9.7a4.474,4.474,0,1,1,4.474-4.474A4.479,4.479,0,0,1,123.19,150.451Zm20.877,0a4.474,4.474,0,1,1,4.474-4.474A4.479,4.479,0,0,1,144.067,150.451Z" transform="translate(-104.398 -113.915)"/>
        <path id="Path_330" data-name="Path 330" class="cls-9" d="M166.567,315.185a16.026,16.026,0,0,0,14.076-8.356l-3.09-1.03a2.969,2.969,0,0,1-.82-.426,11.9,11.9,0,0,1-20.333,0,2.983,2.983,0,0,1-.82.426l-3.09,1.03A16.025,16.025,0,0,0,166.567,315.185Z" transform="translate(-137.337 -248.452)"/>
        <g id="Group_447" data-name="Group 447" transform="translate(0 57.37)">
          <path id="Path_331" data-name="Path 331" class="cls-10" d="M129.617,330.383l-1.887-15.1a5.965,5.965,0,0,0-4.032-4.919l-7.278-2.426a2.934,2.934,0,0,0-3.409,1.157,14.895,14.895,0,0,1-25.175,0,2.934,2.934,0,0,0-3.409-1.157l-7.278,2.426a5.964,5.964,0,0,0-4.032,4.919l-1.887,15.1a4.474,4.474,0,0,0,4.439,5.028h49.512A4.474,4.474,0,0,0,129.617,330.383Z" transform="translate(-71.192 -307.781)"/>
        </g>
        <g id="Group_448" data-name="Group 448" transform="translate(0 61.918)">
          <path id="Path_332" data-name="Path 332" class="cls-11" d="M74.356,332.181a5.952,5.952,0,0,0-1.243,2.953l-1.887,15.1a4.474,4.474,0,0,0,4.439,5.029h8.353v-9.705a5.965,5.965,0,0,0-1.456-3.906Z" transform="translate(-71.19 -332.181)"/>
        </g>
        <g id="Group_449" data-name="Group 449" transform="translate(45.633 61.918)">
          <path id="Path_333" data-name="Path 333" class="cls-11" d="M325.667,332.181a5.952,5.952,0,0,1,1.243,2.953l1.887,15.1a4.474,4.474,0,0,1-4.439,5.029h-8.353v-9.705a5.965,5.965,0,0,1,1.456-3.906Z" transform="translate(-316.006 -332.181)"/>
        </g>
      </g>
      <g id="girl" transform="translate(90 111.236)">
        <path id="Path_345" data-name="Path 345" class="cls-3" d="M95.138,13.19C95.138,5.618,90.833,0,83.414,0a14.62,14.62,0,0,0-8.777,3.031A1.465,1.465,0,0,0,72.3,4.374C68.651,1.4,64.758,0,62.9,0a15.821,15.821,0,0,0-7.328,1.466A15.821,15.821,0,0,0,48.241,0c-1.861,0-5.755,1.4-9.408,4.374A1.465,1.465,0,0,0,36.5,3.031,14.62,14.62,0,0,0,27.724,0C20.3,0,16,5.618,16,13.19c0,7.688,8.549,28.333,4.4,41.034,0,0,9.6-3.307,13.845-16.2a4.411,4.411,0,0,0,.811.076v1.466a8.793,8.793,0,0,0,5.411,8.117l6.313,2.63v4.726a2.931,2.931,0,0,1-2,2.781L38.847,60l-.1-.162a1.465,1.465,0,0,0-2-.48l-4.814,2.888a1.465,1.465,0,0,0-.573,1.876A7.32,7.32,0,0,0,30.071,67.4L28.388,80.022A4.4,4.4,0,0,0,32.746,85H78.392a4.4,4.4,0,0,0,4.358-4.978L81.067,67.4a7.317,7.317,0,0,0-1.291-3.274,1.465,1.465,0,0,0-.573-1.876l-4.814-2.888a1.465,1.465,0,0,0-2,.48l-.1.162-5.925-2.18a2.931,2.931,0,0,1-2-2.781V50.316l6.313-2.63a8.793,8.793,0,0,0,5.411-8.117V38.1a4.411,4.411,0,0,0,.811-.076c4.248,12.889,13.845,16.2,13.845,16.2C86.589,41.523,95.138,20.878,95.138,13.19Z"/>
        <path id="Path_346" data-name="Path 346" class="cls-4" d="M195.254,274H177.668v4.849h0c0,.072,0,.142-.008.213,0,.037-.007.073-.011.109s-.006.059-.01.088c-.008.056-.018.112-.029.167v0a2.93,2.93,0,0,1-1.36,1.93C188.508,283.476,195.254,274,195.254,274Z" transform="translate(-130.892 -223.806)"/>
        <g id="Group_453" data-name="Group 453" transform="translate(71.69)">
          <path id="Path_347" data-name="Path 347" class="cls-12" d="M320,5.862S324.3,0,331.724,0s11.724,5.618,11.724,13.19c0,7.688-8.549,28.333-4.4,41.034,0,0-10.991-3.786-14.655-19.052-3.36-14,1.466-23.448,1.466-23.448Z" transform="translate(-320)"/>
        </g>
        <g id="Group_454" data-name="Group 454" transform="translate(74.762 5.234)">
          <path id="Path_348" data-name="Path 348" class="cls-13" d="M338.828,30.666s4.671-3.481,8.06-1.466c7.46,4.436,1.365,16.621,0,23.448-1.832,9.159-1.1,17.953,5.862,24.914,0,0-10.991-3.786-14.655-19.052-3.36-14,.733-23.448.733-23.448Z" transform="translate(-336.771 -28.573)"/>
        </g>
        <g id="Group_455" data-name="Group 455" transform="translate(72.294 2.739)">
          <path id="Path_349" data-name="Path 349" class="cls-14" d="M329.3,21.5h0a1.465,1.465,0,0,0,.115-2.069l-3.565-3.984a1.465,1.465,0,0,0-2.069-.115h0a1.465,1.465,0,0,0-.115,2.069l3.565,3.984A1.465,1.465,0,0,0,329.3,21.5Z" transform="translate(-323.297 -14.954)"/>
        </g>
        <g id="Group_456" data-name="Group 456" transform="translate(16)">
          <path id="Path_350" data-name="Path 350" class="cls-12" d="M39.448,5.862S35.143,0,27.724,0,16,5.618,16,13.19c0,7.688,8.549,28.333,4.4,41.034,0,0,10.991-3.786,14.655-19.052,3.36-14-1.466-23.448-1.466-23.448Z" transform="translate(-16)"/>
        </g>
        <g id="Group_457" data-name="Group 457" transform="translate(20.397 5.234)">
          <path id="Path_351" data-name="Path 351" class="cls-13" d="M54.106,30.666s-4.855-3.481-8.244-1.466c-7.46,4.436-1.365,16.621,0,23.448C47.694,61.809,46.961,70.6,40,77.563c0,0,10.991-3.786,14.655-19.052,3.36-14-.55-23.448-.55-23.448Z" transform="translate(-40 -28.573)"/>
        </g>
        <g id="Group_458" data-name="Group 458" transform="translate(32.348 2.739)">
          <path id="Path_352" data-name="Path 352" class="cls-14" d="M105.731,21.5h0a1.465,1.465,0,0,1-.115-2.069l3.565-3.984a1.465,1.465,0,0,1,2.069-.115h0a1.465,1.465,0,0,1,.115,2.069L107.8,21.381A1.465,1.465,0,0,1,105.731,21.5Z" transform="translate(-105.243 -14.954)"/>
        </g>
        <path id="Path_353" data-name="Path 353" class="cls-7" d="M141.431,101.19V98.259C141.431,94.212,138.15,88,134.1,88H107.724c-4.047,0-7.328,6.212-7.328,10.259v2.931a4.4,4.4,0,1,0,0,8.793v1.466a8.793,8.793,0,0,0,5.411,8.117l9.469,3.946a14.654,14.654,0,0,0,5.637,1.127h0a14.657,14.657,0,0,0,5.637-1.127l9.47-3.946a8.793,8.793,0,0,0,5.411-8.117v-1.466a4.4,4.4,0,0,0,0-8.793Z" transform="translate(-65.345 -71.879)"/>
        <g id="Group_459" data-name="Group 459" transform="translate(43.845 30.776)">
          <path id="Path_354" data-name="Path 354" class="cls-6" d="M169.466,172.4h0A1.47,1.47,0,0,1,168,170.931v-1.466A1.47,1.47,0,0,1,169.466,168h0a1.47,1.47,0,0,1,1.466,1.466v1.466A1.47,1.47,0,0,1,169.466,172.4Z" transform="translate(-168 -168)"/>
        </g>
        <g id="Group_460" data-name="Group 460" transform="translate(64.362 30.776)">
          <path id="Path_355" data-name="Path 355" class="cls-6" d="M281.466,172.4h0A1.47,1.47,0,0,1,280,170.931v-1.466A1.47,1.47,0,0,1,281.466,168h0a1.47,1.47,0,0,1,1.466,1.466v1.466A1.47,1.47,0,0,1,281.466,172.4Z" transform="translate(-280 -168)"/>
        </g>
        <g id="Group_462" data-name="Group 462" transform="translate(48.241 41.034)">
          <g id="Group_461" data-name="Group 461">
            <path id="Path_356" data-name="Path 356" class="cls-8" d="M199.327,228.435a12.207,12.207,0,0,1-6.686-1.76,1.465,1.465,0,0,1,1.649-2.423,10.765,10.765,0,0,0,10.075,0,1.465,1.465,0,0,1,1.649,2.423A12.206,12.206,0,0,1,199.327,228.435Z" transform="translate(-191.999 -223.998)"/>
          </g>
        </g>
        <path id="Path_357" data-name="Path 357" class="cls-3" d="M100.4,86.487a4.4,4.4,0,0,0,0,8.793v1.466a8.793,8.793,0,0,0,5.411,8.117l9.469,3.946a14.678,14.678,0,0,0,1.416.5,61.165,61.165,0,0,1-8.6-7.487,6.87,6.87,0,0,1-1.831-4.694V88.939c4.2-1.464,15.97-6.274,16.121-14.177A24.106,24.106,0,0,0,122.074,70C119.882,81.745,101.876,86.487,100.4,86.487Z" transform="translate(-65.345 -57.177)"/>
        <g id="Group_463" data-name="Group 463" transform="translate(31.223 59.152)">
          <path id="Path_358" data-name="Path 358" class="cls-15" d="M140.27,323.59,135,332.027a4.4,4.4,0,0,1-3.728,2.066H115.625a4.4,4.4,0,0,1-3.728-2.066l-5.273-8.437a1.465,1.465,0,0,0-2-.48L99.813,326a1.466,1.466,0,0,0-.489,2.033l6.537,10.458h35.172l6.537-10.459a1.466,1.466,0,0,0-.489-2.033l-4.814-2.888A1.466,1.466,0,0,0,140.27,323.59Z" transform="translate(-99.101 -322.901)"/>
        </g>
        <g id="Group_464" data-name="Group 464" transform="translate(37.983 74.741)">
          <rect id="Rectangle_356" data-name="Rectangle 356" class="cls-14" width="35.172" height="10.259"/>
        </g>
        <path id="Path_359" data-name="Path 359" class="cls-12" d="M128.183,0a15.821,15.821,0,0,0-7.328,1.466A15.821,15.821,0,0,0,113.528,0C108.765,0,90.69,9.17,97.407,30.42c0,0,23.448-4.162,23.448-14.3,0,10.136,23.448,14.3,23.448,14.3C151.021,9.17,132.946,0,128.183,0Z" transform="translate(-65.287)"/>
        <g id="Group_465" data-name="Group 465" transform="translate(30.642)">
          <path id="Path_360" data-name="Path 360" class="cls-16" d="M120.856,1.466h0A15.821,15.821,0,0,0,113.528,0c-4.763,0-22.838,9.17-16.121,30.42,0,0,2.839-.505,6.538-1.588C99.805,9.776,116.311,1.481,120.856,1.466Z" transform="translate(-95.929)"/>
        </g>
      </g>
      <g id="speech-bubbles" transform="translate(48 -17.924)">
        <path id="Path_361" data-name="Path 361" class="cls-17" d="M43.089,32h0c23.8,0,43.089,15.612,43.089,34.871s-19.292,34.871-43.089,34.871a53.438,53.438,0,0,1-6.718-.423c-9.256,9.219-19.944,10.872-30.626,11.115v-2.256c5.768-2.815,10.413-7.941,10.413-13.8a16.126,16.126,0,0,0-.182-2.405C6.231,87.578,0,77.814,0,66.871,0,47.612,19.292,32,43.089,32ZM89.41,110.161c0,5.022,3.26,9.417,8.259,11.829v1.934c-9.257-.208-17.755-1.625-25.776-9.527a46.834,46.834,0,0,1-5.822.363,43.471,43.471,0,0,1-22.767-6.2c12.987-.046,25.248-4.206,34.546-11.73A42.157,42.157,0,0,0,88.839,83.6,35.808,35.808,0,0,0,93,66.871c0-.938-.04-1.87-.113-2.8,6.515,5.38,10.526,12.713,10.526,20.8,0,9.38-5.4,17.749-13.846,23.229A13.646,13.646,0,0,0,89.41,110.161Z"/>
      </g>
      <path id="Path_362" data-name="Path 362" class="cls-18" d="M19.037-3.129,1.266-11.021v-3.023l17.771-8.895v5.221l-10.9,4.975,10.9,4.43ZM36.211-26.068,26.631.352H20.549l9.58-26.42ZM37.547-8.314l10.9-4.43-10.9-4.975v-5.221l17.771,8.895v3.023L37.547-3.129Z" transform="translate(64.424 64.634)"/>
    </g>
  </g>
</svg>
