<?xml version="1.0" encoding="UTF-8"?>
<svg width="200px" height="200px" viewBox="0 0 200 200" version="1.1" xmlns="http://www.w3.org/2000/svg" xmlns:xlink="http://www.w3.org/1999/xlink">
    <!-- Generator: Sketch 48.2 (47327) - http://www.bohemiancoding.com/sketch -->
    <title>Group</title>
    <desc>Created with Sketch.</desc>
    <defs></defs>
    <g id="Artboard-4-Copy-3" stroke="none" stroke-width="1" fill="none" fill-rule="evenodd">
        <g id="Group">
            <rect id="Rectangle-8" fill="#4A85E7" x="0" y="0" width="200" height="200"></rect>
            <g id="machine-learning-ml_logo" transform="translate(2.000000, 21.000000)">
                <g id="Group-5" transform="translate(97.500000, 79.500000) rotate(90.000000) translate(-97.500000, -79.500000) translate(18.000000, -18.000000)">
                    <path d="M121.611111,140.391304 L131.388889,113.608696" id="Line-43" stroke="#69C52F" stroke-linecap="square"></path>
                    <path d="M134.625,114.605263 L143.375,136.394737" id="Line-44" stroke="#69C52F" stroke-linecap="square"></path>
                    <path d="M143.590909,137.5 L155.409091,138.5" id="Line-45" stroke="#69C52F" stroke-linecap="square"></path>
                    <path d="M113.615385,103.583333 L128.384615,109.416667" id="Line-46" stroke="#69C52F" stroke-linecap="square"></path>
                    <path d="M113.6,101.4 L124.4,96.6" id="Line-47" stroke="#69C52F" stroke-linecap="square"></path>
                    <path d="M113.583333,99.4 L119.416667,82.6" id="Line-48" stroke="#69C52F" stroke-linecap="square"></path>
                    <path d="M93.3333333,41.6041667 L90.6666667,69.3958333" id="Line-10" stroke="#CFE40E" stroke-linecap="square"></path>
                    <path d="M30.6153846,64.4 L61.3846154,53.6" id="Line-5" stroke="#F7980F" stroke-linecap="square"></path>
                    <path d="M49.4,48.5952381 L44.6,72.4047619" id="Line-4" stroke="#FFFFFF" stroke-linecap="square"></path>
                    <path d="M17.6,84.4 L28.4,67.6" id="Line-18" stroke="#F7980F" stroke-linecap="square"></path>
                    <path d="M18.6111111,90.6 L50.3888889,131.4" id="Line-19" stroke="#F7980F" stroke-linecap="square"></path>
                    <path d="M11.6034483,112.4 L45.3965517,107.6" id="Line-20" stroke="#FFFFFF" stroke-linecap="square"></path>
                    <path d="M11.6071429,114.6 L27.3928571,119.4" id="Line-21" stroke="#FFFFFF" stroke-linecap="square"></path>
                    <path d="M22.5952381,134.5 L46.4047619,133.5" id="Line-22" stroke="#F7980F" stroke-linecap="square"></path>
                    <path d="M52.6111111,131.4 L62.3888889,108.6" id="Line-23" stroke="#F7980F" stroke-linecap="square"></path>
                    <path d="M50.6052632,105.6 L72.3947368,128.4" id="Line-24" stroke="#FFFFFF" stroke-linecap="square"></path>
                    <path d="M80.606383,98.4 L136.393617,81.6" id="Line-42" stroke="#FFFFFF" stroke-linecap="square"></path>
                    <path d="M74.625,129.395833 L78.375,101.604167" id="Line-25" stroke="#FFFFFF" stroke-linecap="square"></path>
                    <path d="M66.5909091,28.625 L78.4090909,32.375" id="Line-9" stroke="#FFFFFF" stroke-linecap="square"></path>
                    <path d="M64.5714286,29.6153846 L71.4285714,44.3846154" id="Line-8" stroke="#FFFFFF" stroke-linecap="square"></path>
                    <path d="M79.5952381,101.625 L103.404762,110.375" id="Line-26" stroke="#FFFFFF" stroke-linecap="square"></path>
                    <path d="M106.571429,110.617647 L113.428571,130.382353" id="Line-27" stroke="#FFFFFF" stroke-linecap="square"></path>
                    <path d="M102.384615,143.5 L87.6153846,142.5" id="Line-28" stroke="#FFFFFF" stroke-linecap="square"></path>
                    <path d="M85.4047619,143.571429 L58,152" id="Line-29" stroke="#FFFFFF" stroke-linecap="square"></path>
                    <path d="M56.3928571,151.416667 L40.6071429,145.583333" id="Line-30" stroke="#FFFFFF" stroke-linecap="square"></path>
                    <path d="M73.609375,160.4 L111.390625,149.6" id="Line-31" stroke="#69C52F" stroke-linecap="square"></path>
                    <path d="M73.6071429,161.615385 L89.3928571,176.384615" id="Line-32" stroke="#69C52F" stroke-linecap="square"></path>
                    <path d="M87.6153846,144.6 L102.384615,167.4" id="Line-33" stroke="#FFFFFF" stroke-linecap="square"></path>
                    <path d="M103.4,170.605263 L98.6,192.394737" id="Line-34" stroke="#FFFFFF" stroke-linecap="square"></path>
                    <path d="M104.608696,168.6 L131.391304,173.4" id="Line-35" stroke="#FFFFFF" stroke-linecap="square"></path>
                    <path d="M126.583333,161.611111 L132.416667,171.388889" id="Line-36" stroke="#FFFFFF" stroke-linecap="square"></path>
                    <path d="M88.4285714,73.625 L81.5714286,82.375" id="Line-37" stroke="#CFE40E" stroke-linecap="square"></path>
                    <path d="M90.6153846,71.6 L105.384615,76.4" id="Line-38" stroke="#CFE40E" stroke-linecap="square"></path>
                    <path d="M90.4285714,27.4 L83.5714286,4.6" id="Line-39" stroke="#CFE40E" stroke-linecap="square"></path>
                    <path d="M82.375,2.6 L73.625,13.4" id="Line-40" stroke="#CFE40E" stroke-linecap="square"></path>
                    <path d="M106.625,30.3333333 L115.375,27.6666667" id="Line-41" stroke="#FFFFFF" stroke-linecap="square"></path>
                    <path d="M72.6029412,46.59375 L112.397059,64.40625" id="Line-11" stroke="#CFE40E" stroke-linecap="square"></path>
                    <path d="M72.375,47.6060606 L63.625,86.3939394" id="Line-12" stroke="#FFFFFF" stroke-linecap="square"></path>
                    <path d="M64.625,86.3947368 L78.375,64.6052632" id="Line-13" stroke="#FFFFFF" stroke-linecap="square"></path>
                    <path d="M29.5909091,81.4 L41.4090909,76.6" id="Line-14" stroke="#FFFFFF" stroke-linecap="square"></path>
                    <path d="M44.6,76.6 L61.4,87.4" id="Line-15" stroke="#FFFFFF" stroke-linecap="square"></path>
                    <path d="M27.6052632,92.625 L49.3947368,106.375" id="Line-16" stroke="#FFFFFF" stroke-linecap="square"></path>
                    <path d="M12.5,99.6 L11.5,110.4" id="Line-17" stroke="#FFFFFF" stroke-linecap="square"></path>
                    <path d="M30.6,63.3888889 L35.4,53.6111111" id="Line-6" stroke="#F7980F" stroke-linecap="square"></path>
                    <path d="M24.6,50.3823529 L59.4,30.6176471" id="Line-7" stroke="#FFFFFF" stroke-linecap="square"></path>
                    <path d="M37.5,38.6 L36.5,49.4" id="Line-3" stroke="#F7980F" stroke-linecap="square"></path>
                    <circle id="Oval-2" stroke="#FFFFFF" cx="14.5" cy="85.5" r="14.5"></circle>
                    <circle id="Oval-2-Copy-24" stroke="#FFFFFF" cx="93.5" cy="35.5" r="14.5"></circle>
                    <circle id="Oval-2" fill="#F7980F" fill-rule="nonzero" cx="14.5" cy="85.5" r="9.5"></circle>
                    <circle id="Oval-2-Copy-23" fill="#CFE40E" fill-rule="nonzero" cx="93.5" cy="35.5" r="10.5"></circle>
                    <circle id="Oval-2-Copy-30" fill="#69C52F" fill-rule="nonzero" cx="119" cy="147" r="11"></circle>
                    <circle id="Oval-2-Copy" fill="#FFFFFF" fill-rule="nonzero" cx="13" cy="100" r="3"></circle>
                    <circle id="Oval-2-Copy-2" fill="#FFFFFF" fill-rule="nonzero" cx="29.5" cy="81.5" r="2.5"></circle>
                    <circle id="Oval-2-Copy-9" fill="#FFFFFF" fill-rule="nonzero" cx="43.5" cy="76.5" r="3.5"></circle>
                    <circle id="Oval-2-Copy-10" fill="#FFFFFF" fill-rule="nonzero" cx="64" cy="29" r="5"></circle>
                    <circle id="Oval-2-Copy-19" fill="#FFFFFF" fill-rule="nonzero" cx="78.5" cy="99.5" r="5.5"></circle>
                    <circle id="Oval-2-Copy-20" fill="#FFFFFF" fill-rule="nonzero" cx="88" cy="143" r="5"></circle>
                    <circle id="Oval-2-Copy-37" fill="#FFFFFF" fill-rule="nonzero" cx="103.5" cy="168.5" r="3.5"></circle>
                    <circle id="Oval-2-Copy-42" fill="#FFFFFF" fill-rule="nonzero" cx="73.5" cy="130.5" r="3.5"></circle>
                    <circle id="Oval-2-Copy-50" fill="#FFFFFF" fill-rule="nonzero" cx="105.5" cy="110.5" r="3.5"></circle>
                    <circle id="Oval-2-Copy-53" fill="#69C52F" fill-rule="nonzero" cx="132.5" cy="110.5" r="5.5"></circle>
                    <circle id="Oval-2-Copy-43" fill="#FFFFFF" fill-rule="nonzero" cx="10.5" cy="112.5" r="3.5"></circle>
                    <circle id="Oval-2-Copy-44" fill="#FFFFFF" fill-rule="nonzero" cx="64" cy="89" r="5"></circle>
                    <circle id="Oval-2-Copy-47" fill="#FFFFFF" fill-rule="nonzero" cx="25.5" cy="50.5" r="3.5"></circle>
                    <circle id="Oval-2-Copy-45" fill="#FFFFFF" cx="117" cy="67" r="5"></circle>
                    <circle id="Oval-2-Copy-46" fill="#FFFFFF" fill-rule="nonzero" cx="118" cy="26" r="5"></circle>
                    <circle id="Oval-2-Copy-21" fill="#FFFFFF" fill-rule="nonzero" cx="57" cy="152" r="4"></circle>
                    <circle id="Oval-2-Copy-22" fill="#FFFFFF" fill-rule="nonzero" cx="40.5" cy="145.5" r="2.5"></circle>
                    <circle id="Oval-2-Copy-32" fill="#FFFFFF" fill-rule="nonzero" cx="103.5" cy="142.5" r="2.5"></circle>
                    <circle id="Oval-2-Copy-38" fill="#69C52F" fill-rule="nonzero" cx="88.5" cy="175.5" r="2.5"></circle>
                    <circle id="Oval-2-Copy-40" fill="#69C52F" fill-rule="nonzero" cx="156.5" cy="139.5" r="2.5"></circle>
                    <circle id="Oval-2-Copy-39" fill="#69C52F" fill-rule="nonzero" cx="73" cy="160" r="3"></circle>
                    <circle id="Oval-2-Copy-41" fill="#69C52F" fill-rule="nonzero" cx="143" cy="137" r="3"></circle>
                    <circle id="Oval-2-Copy-33" fill="#FFFFFF" fill-rule="nonzero" cx="114.5" cy="130.5" r="2.5"></circle>
                    <circle id="Oval-2-Copy-34" fill="#FFFFFF" fill-rule="nonzero" cx="127.5" cy="161.5" r="2.5"></circle>
                    <circle id="Oval-2-Copy-36" fill="#FFFFFF" fill-rule="nonzero" cx="98.5" cy="192.5" r="2.5"></circle>
                    <circle id="Oval-2-Copy-35" fill="#FFFFFF" fill-rule="nonzero" cx="134" cy="173" r="5"></circle>
                    <circle id="Oval-2-Copy-12" fill="#FFFFFF" fill-rule="nonzero" cx="72.5" cy="45.5" r="3.5"></circle>
                    <circle id="Oval-2-Copy-11" fill="#FFFFFF" fill-rule="nonzero" cx="49.5" cy="46.5" r="2.5"></circle>
                    <circle id="Oval-2-Copy-14" fill="#FFFFFF" fill-rule="nonzero" cx="78.5" cy="31.5" r="2.5"></circle>
                    <circle id="Oval-2-Copy-25" fill="#CFE40E" fill-rule="nonzero" cx="83" cy="3" r="3"></circle>
                    <circle id="Oval-2-Copy-27" fill="#CFE40E" fill-rule="nonzero" cx="89.5" cy="72.5" r="3.5"></circle>
                    <circle id="Oval-2-Copy-26" fill="#CFE40E" fill-rule="nonzero" cx="72.5" cy="14.5" r="2.5"></circle>
                    <circle id="Oval-2-Copy-28" fill="#69C52F" fill-rule="nonzero" cx="112" cy="102" r="3"></circle>
                    <circle id="Oval-2-Copy-52" fill="#69C52F" fill-rule="nonzero" cx="125.5" cy="95.5" r="2.5"></circle>
                    <circle id="Oval-2-Copy-54" fill="#69C52F" fill-rule="nonzero" cx="120.5" cy="81.5" r="2.5"></circle>
                    <circle id="Oval-2-Copy-29" fill="#CFE40E" fill-rule="nonzero" cx="105.5" cy="76.5" r="2.5"></circle>
                    <circle id="Oval-2-Copy-55" fill="#CFE40E" fill-rule="nonzero" cx="81.5" cy="82.5" r="2.5"></circle>
                    <circle id="Oval-2-Copy-15" fill="#FFFFFF" fill-rule="nonzero" cx="106.5" cy="29.5" r="2.5"></circle>
                    <circle id="Oval-2-Copy-16" fill="#FFFFFF" fill-rule="nonzero" cx="108.5" cy="36.5" r="2.5"></circle>
                    <circle id="Oval-2-Copy-13" fill="#FFFFFF" fill-rule="nonzero" cx="78.5" cy="64.5" r="2.5"></circle>
                    <circle id="Oval-2-Copy-51" fill="#FFFFFF" fill-rule="nonzero" cx="139" cy="81" r="3"></circle>
                    <circle id="Oval-2-Copy-4" fill="#FFFFFF" fill-rule="nonzero" cx="26.5" cy="93.5" r="2.5"></circle>
                    <circle id="Oval-2-Copy-3" fill="#FFFFFF" fill-rule="nonzero" cx="49" cy="106" r="5"></circle>
                    <circle id="Oval-2-Copy-17" fill="#F7980F" fill-rule="nonzero" cx="30.5" cy="64.5" r="5.5"></circle>
                    <circle id="Oval-2-Copy-6" fill="#F7980F" fill-rule="nonzero" cx="51.5" cy="132.5" r="5.5"></circle>
                    <circle id="Oval-2-Copy-7" fill="#F7980F" fill-rule="nonzero" cx="21.5" cy="134.5" r="2.5"></circle>
                    <circle id="Oval-2-Copy-8" fill="#F7980F" fill-rule="nonzero" cx="63.5" cy="107.5" r="2.5"></circle>
                    <circle id="Oval-2-Copy-18" fill="#F7980F" fill-rule="nonzero" cx="38.5" cy="36.5" r="2.5"></circle>
                    <circle id="Oval-2-Copy-49" fill="#F7980F" fill-rule="nonzero" cx="63.5" cy="53.5" r="2.5"></circle>
                    <circle id="Oval-2-Copy-49-Copy" fill="#F7980F" fill-rule="nonzero" cx="36.5" cy="51.5" r="2.5"></circle>
                    <circle id="Oval-2-Copy-5" fill="#FFFFFF" fill-rule="nonzero" cx="30" cy="120" r="3"></circle>
                    <circle id="Oval-2-Copy-31" stroke="#FFFFFF" cx="119" cy="147" r="17"></circle>
                </g>
            </g>
        </g>
    </g>
</svg>