<?xml version="1.0" encoding="utf-8"?>
<!-- Generator: Adobe Illustrator 19.0.0, SVG Export Plug-In . SVG Version: 6.00 Build 0)  -->
<svg version="1.1" id="Layer_1" xmlns="http://www.w3.org/2000/svg" xmlns:xlink="http://www.w3.org/1999/xlink" x="0px" y="0px"
	 viewBox="-89 41 120 220" style="enable-background:new -89 41 120 220;" xml:space="preserve">
<style type="text/css">
	.st0{fill:#DF2B00;}
	.st1{fill:#5382A1;}
</style>
<path class="st0" d="M25,213.4h-0.8v-0.5h2.2v0.5h-0.8v2.3H25V213.4L25,213.4z M29.4,213.5L29.4,213.5l-0.8,2.2h-0.4l-0.8-2.2h0v2.2
	h-0.5v-2.7h0.8l0.7,1.9l0.7-1.9h0.8v2.7h-0.5L29.4,213.5L29.4,213.5z"/>
<path class="st1" d="M-47.9,157.5c0,0-5.7,3.3,4,4.4c11.8,1.3,17.8,1.1,30.7-1.3c0,0,3.4,2.1,8.2,4C-34,177.1-70.7,163.9-47.9,157.5
	"/>
<path class="st1" d="M-51.5,141.3c0,0-6.4,4.7,3.4,5.7c12.6,1.3,22.5,1.4,39.6-1.9c0,0,2.4,2.4,6.1,3.7
	C-37.5,159.1-76.6,149.6-51.5,141.3"/>
<path class="st0" d="M-21.6,113.7c7.2,8.2-1.9,15.7-1.9,15.7s18.2-9.4,9.8-21.1c-7.8-11-13.8-16.4,18.6-35.2
	C5,73.1-45.8,85.8-21.6,113.7"/>
<path class="st1" d="M16.9,169.5c0,0,4.2,3.5-4.6,6.1c-16.8,5.1-69.8,6.6-84.5,0.2c-5.3-2.3,4.6-5.5,7.8-6.2
	c3.3-0.7,5.1-0.6,5.1-0.6c-5.9-4.1-38.1,8.1-16.3,11.7C-16.5,190.4,32.2,176.5,16.9,169.5"/>
<path class="st1" d="M-45.2,124.4c0,0-27,6.4-9.6,8.7c7.4,1,22,0.8,35.7-0.4c11.2-0.9,22.4-2.9,22.4-2.9s-3.9,1.7-6.8,3.6
	c-27.4,7.2-80.3,3.9-65.1-3.5C-55.7,123.7-45.2,124.5-45.2,124.4"/>
<path class="st1" d="M3.2,151.5c27.8-14.5,15-28.4,6-26.5C7,125.5,6,125.8,6,125.8s0.8-1.3,2.4-1.8c17.8-6.2,31.4,18.4-5.7,28.2
	C2.6,152.2,3.1,151.8,3.2,151.5"/>
<path class="st0" d="M-13.6,42.8c0,0,15.4,15.4-14.6,39.1c-24.1,19-5.5,29.9,0,42.3c-14.1-12.7-24.4-23.9-17.5-34.3
	C-35.5,74.7-7.4,67.3-13.6,42.8"/>
<path class="st1" d="M-42.5,190.7c26.7,1.7,67.8-0.9,68.7-13.6c0,0-1.9,4.8-22.1,8.6c-22.8,4.3-50.9,3.8-67.6,1
	C-63.4,186.7-60,189.6-42.5,190.7"/>
<path class="st0" d="M-46.8,239c-2.5,2.2-5.2,3.4-7.6,3.4c-3.4,0-5.3-2-5.3-5.3c0-3.5,2-6.1,9.9-6.1h2.9L-46.8,239 M-39.9,246.9
	v-24.3c0-6.2-3.5-10.3-12.1-10.3c-5,0-9.3,1.2-12.9,2.8l1,4.3c2.8-1,6.4-2,10-2c4.9,0,7,2,7,6.1v3.1h-2.5
	c-11.9,0-17.3,4.6-17.3,11.6c0,6,3.6,9.4,10.2,9.4c4.3,0,7.5-1.8,10.5-4.4l0.5,3.7L-39.9,246.9L-39.9,246.9z"/>
<path class="st0" d="M-16.7,246.9h-8.7l-10.4-34h7.6l6.5,20.9l1.4,6.3c3.3-9.1,5.6-18.3,6.8-27.2h7.4
	C-8.1,224.1-11.7,236.4-16.7,246.9"/>
<path class="st0" d="M16.6,239c-2.5,2.2-5.2,3.4-7.6,3.4c-3.4,0-5.3-2-5.3-5.3c0-3.5,2-6.1,9.9-6.1h2.9V239 M23.6,246.9v-24.3
	c0-6.2-3.5-10.3-12.1-10.3c-5,0-9.4,1.2-12.9,2.8l1,4.3c2.8-1,6.4-2,10-2c4.9,0,7,2,7,6.1v3.1h-2.5c-11.9,0-17.3,4.6-17.3,11.6
	c0,6,3.5,9.4,10.2,9.4c4.3,0,7.5-1.8,10.5-4.4l0.5,3.7L23.6,246.9L23.6,246.9z"/>
<path class="st0" d="M-74.3,252.6c-2,2.9-5.2,5.2-8.7,6.5l-3.4-4c2.7-1.4,5-3.6,6-5.6c0.9-1.8,1.3-4.2,1.3-9.8v-38.8h7.4v38.3
	C-71.7,246.6-72.3,249.7-74.3,252.6"/>
</svg>
