<?xml version="1.0" encoding="utf-8"?>
<!-- Generator: Adobe Illustrator 19.0.0, SVG Export Plug-In . SVG Version: 6.00 Build 0)  -->
<svg version="1.1" id="Layer_1" xmlns="http://www.w3.org/2000/svg" xmlns:xlink="http://www.w3.org/1999/xlink" x="0px" y="0px"
	 viewBox="-124 126 50 50" style="enable-background:new -124 126 50 50;" xml:space="preserve">
<style type="text/css">
	.st0{fill:url(#SVGID_1_);}
	.st1{fill:url(#SVGID_2_);}
	.st2{fill:#14559A;}
	.st3{fill:url(#SVGID_3_);}
	.st4{fill:#3092C4;}
	.st5{fill:#1969BC;}
	.st6{fill:url(#SVGID_4_);}
	.st7{fill:url(#SVGID_5_);}
	.st8{fill:url(#SVGID_6_);}
	.st9{fill:#2B74B1;}
	.st10{fill:#125A9E;}
	.st11{fill:url(#SVGID_7_);}
	.st12{fill:url(#SVGID_8_);}
	.st13{fill:#0D82CA;}
	.st14{fill:url(#SVGID_9_);}
	.st15{fill:#127BCA;}
	.st16{fill:url(#SVGID_10_);}
	.st17{fill:url(#SVGID_11_);}
	.st18{fill:#05A1E6;}
	.st19{fill:url(#SVGID_12_);}
	.st20{fill:url(#SVGID_13_);}
	.st21{fill:url(#SVGID_14_);}
	.st22{fill:#079AE1;}
	.st23{fill:#1E5CB3;}
	.st24{fill:#1D60B5;}
	.st25{fill:#175FAB;}
	.st26{fill:url(#SVGID_15_);}
	.st27{fill:#7DCBEC;}
	.st28{fill:#5EC5ED;}
	.st29{fill:url(#SVGID_16_);}
	.st30{fill:url(#SVGID_17_);}
	.st31{fill:url(#SVGID_18_);}
</style>
<g transform="translate(.81)">
	
		<linearGradient id="SVGID_1_" gradientUnits="userSpaceOnUse" x1="-610.2613" y1="-198.5152" x2="-610.2613" y2="-198.2292" gradientTransform="matrix(45.6076 0 0 81.335 27729.8906 16288.3809)">
		<stop  offset="0" style="stop-color:#0994DC"/>
		<stop  offset="0.35" style="stop-color:#66CEF5"/>
		<stop  offset="0.35" style="stop-color:#66CEF5"/>
		<stop  offset="0.846" style="stop-color:#127BCA"/>
		<stop  offset="0.846" style="stop-color:#127BCA"/>
		<stop  offset="1" style="stop-color:#127BCA"/>
	</linearGradient>
	<path class="st0" d="M-107.1,145.8c1.8,5.4,2.4,15,7.6,15c0.4,0,0.8,0,1.2-0.1c-4.7-1.1-5.2-10.6-8.1-15.5
		C-106.6,145.3-106.8,145.6-107.1,145.8"/>
	
		<linearGradient id="SVGID_2_" gradientUnits="userSpaceOnUse" x1="-610.7573" y1="-198.5269" x2="-610.7573" y2="-198.2409" gradientTransform="matrix(47.8692 0 0 83.4083 29134.6992 16700.3574)">
		<stop  offset="0" style="stop-color:#0E76BC"/>
		<stop  offset="0.36" style="stop-color:#36AEE8"/>
		<stop  offset="0.36" style="stop-color:#36AEE8"/>
		<stop  offset="0.846" style="stop-color:#00ADEF"/>
		<stop  offset="0.846" style="stop-color:#00ADEF"/>
		<stop  offset="1" style="stop-color:#00ADEF"/>
	</linearGradient>
	<path class="st1" d="M-106.4,145.1c2.9,4.9,3.4,14.4,8.1,15.5c0.4-0.1,0.7-0.2,1.1-0.3c-4.2-2.1-5.4-11.3-8.6-15.7
		C-106,144.8-106.2,145-106.4,145.1"/>
	<path class="st2" d="M-102.3,142.2c-0.4,0-0.8,0-1.2,0.1c-1,0.2-2.1,0.6-3.2,1.3c0.3,0.3,0.6,0.6,0.8,1c1.1-0.9,2.2-1.6,3.2-2
		c0.4-0.1,0.8-0.3,1.2-0.3C-101.7,142.3-102,142.2-102.3,142.2"/>
	
		<linearGradient id="SVGID_3_" gradientUnits="userSpaceOnUse" x1="-610.7565" y1="-198.1766" x2="-610.7565" y2="-198.4016" gradientTransform="matrix(45.4522 0 0 84.5 27663.3125 16906.1953)">
		<stop  offset="0" style="stop-color:#1C63B7"/>
		<stop  offset="0.5" style="stop-color:#33BDF2"/>
		<stop  offset="1" style="stop-color:#33BDF2;stop-opacity:0.42"/>
	</linearGradient>
	<path class="st3" d="M-93.9,158.4c0.4-0.3,0.9-0.7,1.3-1.1c-1.8-5.4-2.4-15.1-7.6-15.1c-0.4,0-0.7,0-1.1,0.1
		C-96.6,143.5-96,153.8-93.9,158.4"/>
	<path class="st4" d="M-101.4,142.3c-0.3-0.1-0.6-0.1-0.9-0.1h2C-100.6,142.2-101,142.3-101.4,142.3"/>
	<path class="st5" d="M-94,159.6l-0.6-0.6c-0.9,0.6-1.7,1.1-2.6,1.4c0.3,0.2,0.6,0.3,1,0.3c0.3,0.1,0.5,0.1,0.8,0.1
		c1,0,1.7-0.1,2.4-0.4C-93.4,160.1-93.7,159.9-94,159.6"/>
	
		<linearGradient id="SVGID_4_" gradientUnits="userSpaceOnUse" x1="-610.5588" y1="-198.4709" x2="-610.5588" y2="-198.1849" gradientTransform="matrix(45.0105 0 0 86.5982 27383.3438 17326.3867)">
		<stop  offset="0" style="stop-color:#166AB8"/>
		<stop  offset="0.4" style="stop-color:#36AEE8"/>
		<stop  offset="0.4" style="stop-color:#36AEE8"/>
		<stop  offset="0.846" style="stop-color:#0798DD"/>
		<stop  offset="0.846" style="stop-color:#0798DD"/>
		<stop  offset="1" style="stop-color:#0798DD"/>
	</linearGradient>
	<path class="st6" d="M-102.6,142.7c4.2,2.2,4.6,12.2,8,16.3c0.2-0.2,0.4-0.3,0.7-0.5c-2.1-4.7-2.7-14.9-7.4-16.1
		C-101.8,142.4-102.2,142.5-102.6,142.7"/>
	
		<linearGradient id="SVGID_5_" gradientUnits="userSpaceOnUse" x1="-612.3749" y1="-198.5796" x2="-612.3749" y2="-198.2936" gradientTransform="matrix(58.3509 0 0 92.0822 35632.4609 18424.9375)">
		<stop  offset="0" style="stop-color:#124379"/>
		<stop  offset="0.39" style="stop-color:#1487CB"/>
		<stop  offset="0.39" style="stop-color:#1487CB"/>
		<stop  offset="0.78" style="stop-color:#165197"/>
		<stop  offset="0.78" style="stop-color:#165197"/>
		<stop  offset="1" style="stop-color:#165197"/>
	</linearGradient>
	<path class="st7" d="M-105.8,144.6c3.2,4.4,4.4,13.7,8.6,15.7c0.9-0.3,1.7-0.8,2.6-1.4c-3.4-4.1-3.7-14.1-8-16.3
		C-103.6,143.1-104.7,143.7-105.8,144.6"/>
	
		<linearGradient id="SVGID_6_" gradientUnits="userSpaceOnUse" x1="-597.0549" y1="-195.7926" x2="-596.8629" y2="-195.7926" gradientTransform="matrix(19.4176 0 0 30.9219 11482.6182 6201.5767)">
		<stop  offset="0" style="stop-color:#33BDF2;stop-opacity:0.698"/>
		<stop  offset="1" style="stop-color:#1DACD8"/>
	</linearGradient>
	<path class="st8" d="M-109.1,145.6c-0.5,1.1-1,2.7-1.7,4.6c1.2-1.8,2.5-3.3,3.7-4.5c-0.2-0.5-0.4-1-0.6-1.4
		C-108.1,144.7-108.6,145.2-109.1,145.6"/>
	<path class="st9" d="M-107.2,144c-0.1,0.1-0.3,0.2-0.4,0.3c0.2,0.4,0.4,0.9,0.5,1.4c0.2-0.2,0.4-0.4,0.7-0.6
		C-106.6,144.7-106.9,144.3-107.2,144"/>
	<path class="st10" d="M-106.6,143.6c-0.2,0.1-0.4,0.2-0.5,0.4c0.3,0.3,0.5,0.7,0.8,1.1c0.2-0.2,0.4-0.4,0.6-0.5
		C-106.1,144.3-106.3,143.9-106.6,143.6"/>
	
		<linearGradient id="SVGID_7_" gradientUnits="userSpaceOnUse" x1="-615.0726" y1="-198.4211" x2="-615.0726" y2="-198.6091" gradientTransform="matrix(79.1425 0 0 98.6787 48595.6172 19739.7305)">
		<stop  offset="0" style="stop-color:#136AB4"/>
		<stop  offset="0.6" style="stop-color:#59CAF5;stop-opacity:0.549"/>
		<stop  offset="1" style="stop-color:#59CAF5;stop-opacity:0.235"/>
	</linearGradient>
	<path class="st11" d="M-77.8,141.8c-2.4,9.2-7.4,16.6-11.6,18.5c-0.1,0-0.2,0.1-0.2,0.1h-0.1h-0.1h-0.1H-90h-0.1h-0.1h-0.1h-0.1
		c0.2,0.1,0.4,0.1,0.6,0.1c4,0,8-7.1,14.6-18.9L-77.8,141.8L-77.8,141.8z"/>
	
		<linearGradient id="SVGID_8_" gradientUnits="userSpaceOnUse" x1="-612.7639" y1="-198.5303" x2="-612.5719" y2="-198.5303" gradientTransform="matrix(72.0226 0 0 99.1613 44008.8203 19838.373)">
		<stop  offset="0" style="stop-color:#05A1E6;stop-opacity:0.247"/>
		<stop  offset="1" style="stop-color:#05A1E6"/>
	</linearGradient>
	<path class="st12" d="M-111.7,142.6C-111.6,142.6-111.6,142.6-111.7,142.6C-111.6,142.6-111.6,142.6-111.7,142.6
		C-111.6,142.5-111.6,142.5-111.7,142.6c0.1,0,0.1,0,0.1-0.1h0.1c0.1,0,0.1,0,0.2-0.1h0.2c0.1,0,0.1,0,0.2-0.1h0.6h-0.4
		c-4.5,0-10.6,8.3-13.4,19h0.5c0.9-1.6,1.7-3.1,2.4-4.5C-119.1,149.2-115.2,144-111.7,142.6"/>
	<path class="st13" d="M-109.1,145.6c0.5-0.5,1-0.9,1.5-1.3c-0.1-0.3-0.2-0.5-0.4-0.7C-108.4,144.1-108.8,144.8-109.1,145.6
		 M-108.8,142.6c0.3,0.2,0.6,0.6,0.8,1c0.1-0.1,0.2-0.2,0.2-0.3C-108.1,143.1-108.4,142.8-108.8,142.6"/>
	
		<linearGradient id="SVGID_9_" gradientUnits="userSpaceOnUse" x1="-609.7102" y1="-197.939" x2="-609.7102" y2="-198.196" gradientTransform="matrix(49.0511 0 0 73.8222 29790.5938 14772.54)">
		<stop  offset="0" style="stop-color:#318ED5"/>
		<stop  offset="1" style="stop-color:#38A7E4"/>
	</linearGradient>
	<path class="st14" d="M-121.1,156.8c4.1-7.9,6-12.8,9.4-14.2C-115.2,144-119.1,149.2-121.1,156.8"/>
	<path class="st15" d="M-107.7,143.4c-0.1,0.1-0.2,0.2-0.2,0.3c0.1,0.2,0.2,0.4,0.4,0.7c0.2-0.1,0.3-0.2,0.4-0.3
		C-107.4,143.8-107.5,143.6-107.7,143.4"/>
	
		<linearGradient id="SVGID_10_" gradientUnits="userSpaceOnUse" x1="-609.1075" y1="-198.0361" x2="-609.1075" y2="-198.3581" gradientTransform="matrix(45.6036 0 0 57.1283 27662.3789 11473.791)">
		<stop  offset="0" style="stop-color:#05A1E6"/>
		<stop  offset="1" style="stop-color:#05A1E6;stop-opacity:0.549"/>
	</linearGradient>
	<path class="st16" d="M-119.2,161.2C-119.3,161.2-119.3,161.2-119.2,161.2h-0.3c4.1-0.1,6-2.2,6.9-5.2c0.7-2.3,1.3-4.2,1.8-5.8
		c-1.7,2.4-3.5,5.3-5.2,8.6C-116.8,160.4-118.1,161.1-119.2,161.2"/>
	
		<linearGradient id="SVGID_11_" gradientUnits="userSpaceOnUse" x1="-610.5054" y1="-198.3074" x2="-610.5054" y2="-198.4994" gradientTransform="matrix(52.5191 0 0 81.0936 31949.0781 16242.7217)">
		<stop  offset="0" style="stop-color:#1959A6"/>
		<stop  offset="0.5" style="stop-color:#05A1E6"/>
		<stop  offset="0.5" style="stop-color:#05A1E6"/>
		<stop  offset="0.918" style="stop-color:#7EC5EA"/>
		<stop  offset="1" style="stop-color:#7EC5EA"/>
	</linearGradient>
	<path class="st17" d="M-119.2,161.2c1.1-0.1,2.4-0.8,3.2-2.4c1.7-3.2,3.5-6.1,5.2-8.6c0.6-2,1.1-3.5,1.7-4.6
		C-112.6,148.9-116,154.4-119.2,161.2"/>
	<path class="st18" d="M-121.1,156.8c-0.7,1.4-1.5,2.9-2.4,4.5h1.6C-121.7,159.7-121.4,158.2-121.1,156.8"/>
	
		<linearGradient id="SVGID_12_" gradientUnits="userSpaceOnUse" x1="-612.8319" y1="-198.4451" x2="-612.8729" y2="-198.6151" gradientTransform="matrix(72.6768 0 0 99.0047 44425.0977 19807.2285)">
		<stop  offset="0" style="stop-color:#165096"/>
		<stop  offset="1" style="stop-color:#0D82CA"/>
	</linearGradient>
	<path class="st19" d="M-110.3,142.2C-110.4,142.2-110.4,142.3-110.3,142.2C-110.4,142.3-110.4,142.3-110.3,142.2h-0.1h-0.1h-0.1
		h-0.1h-0.1c-0.1,0-0.1,0-0.2,0.1h-0.1h-0.1c-0.1,0-0.1,0-0.2,0.1h-0.1h-0.1c-3.4,1.3-5.3,6.3-9.4,14.2c-0.4,1.4-0.7,2.9-0.9,4.5
		h2.5c3.2-6.8,6.6-12.3,10.1-15.6c0.4-0.9,0.8-1.5,1.2-2c-0.2-0.4-0.5-0.7-0.8-1h-0.1h-0.1h-0.1h-0.1h-0.1h-0.3h-0.1h-0.1h-0.1
		C-110.2,142.2-110.3,142.3-110.3,142.2"/>
	
		<linearGradient id="SVGID_13_" gradientUnits="userSpaceOnUse" x1="-608.9364" y1="-197.4735" x2="-608.9364" y2="-197.6275" gradientTransform="matrix(32.7663 0 0 57.2261 19866.6797 11451.3721)">
		<stop  offset="0" style="stop-color:#05A1E6"/>
		<stop  offset="0.874" style="stop-color:#0495D6"/>
		<stop  offset="1" style="stop-color:#0495D6"/>
	</linearGradient>
	<path class="st20" d="M-87.1,146.9c-0.8,2.5-1.4,4.6-2,6.3c2.2-3,4.3-6.7,6.3-11C-85.2,143-86.4,144.6-87.1,146.9"/>
	
		<linearGradient id="SVGID_14_" gradientUnits="userSpaceOnUse" x1="-613.7194" y1="-198.5772" x2="-613.7794" y2="-198.3652" gradientTransform="matrix(60.2691 0 0 96.3231 36906.6289 19268.623)">
		<stop  offset="0" style="stop-color:#38A7E4;stop-opacity:0.329"/>
		<stop  offset="0.962" style="stop-color:#0E88D3"/>
		<stop  offset="0.962" style="stop-color:#0E88D3"/>
		<stop  offset="1" style="stop-color:#0E88D3"/>
	</linearGradient>
	<path class="st21" d="M-89,160.1c-0.1,0.1-0.2,0.1-0.3,0.2c4.2-1.9,9.2-9.3,11.6-18.5h-0.5C-83.8,151.6-85.5,158.2-89,160.1"/>
	<path class="st22" d="M-91.8,159.3c0.9-1.1,1.7-3,2.7-6.1c-1.2,1.6-2.3,3-3.5,4.1C-92.4,158.1-92.1,158.8-91.8,159.3"/>
	<path class="st5" d="M-91.8,159.3c-0.3,0.4-0.6,0.7-1,0.9c-0.1,0-0.2,0.1-0.2,0.1c0.4,0.2,0.8,0.3,1.3,0.4h1.2
		C-90.9,160.5-91.4,160-91.8,159.3"/>
	<path class="st23" d="M-99.5,160.8c0.4,0,0.8,0,1.2-0.1c0.4-0.1,0.7-0.2,1.1-0.3c0.3,0.2,0.6,0.3,1,0.3c0.3,0.1,0.5,0.1,0.8,0.1
		H-99.5z M-95.4,160.8c1,0,1.7-0.1,2.4-0.4c0.4,0.2,0.8,0.3,1.3,0.4h0.4C-91.3,160.8-95.4,160.8-95.4,160.8z"/>
	<path class="st24" d="M-91.3,160.8h0.8c0.2,0.1,0.4,0.1,0.6,0.1L-91.3,160.8z"/>
	<path class="st25" d="M-92.6,157.3c-0.4,0.4-0.9,0.8-1.3,1.1c-0.2,0.2-0.4,0.3-0.7,0.5l0.6,0.6c0.3,0.3,0.6,0.5,1,0.7
		c0.1,0,0.2-0.1,0.2-0.1c0.4-0.2,0.7-0.5,1-0.9C-92.1,158.8-92.4,158.1-92.6,157.3"/>
	
		<linearGradient id="SVGID_15_" gradientUnits="userSpaceOnUse" x1="-614.4291" y1="-198.5951" x2="-614.4291" y2="-198.3991" gradientTransform="matrix(70.2816 0 0 98.1105 43098 19626.0918)">
		<stop  offset="0" style="stop-color:#168CD4"/>
		<stop  offset="0.5" style="stop-color:#1C87CC"/>
		<stop  offset="1" style="stop-color:#154B8D"/>
	</linearGradient>
	<path class="st26" d="M-79.8,141.8h-2.8c-0.1,0.1-0.1,0.3-0.2,0.4c-2,4.3-4.1,8-6.3,11c-1,3.1-1.8,5-2.7,6.1
		c0.4,0.7,0.8,1.1,1.4,1.3h0.7c0.1,0,0.2-0.1,0.2-0.1c0.1,0,0.2-0.1,0.3-0.2c3.5-2,5.3-8.5,10.8-18.3L-79.8,141.8z"/>
	<path class="st27" d="M-110.2,142.2C-110.1,142.2-110.1,142.2-110.2,142.2h0.3c0.1,0,0.2,0,0.2,0.1h0.6c0.4,0.2,0.7,0.4,1.1,0.8
		c0.1-0.1,0.3-0.2,0.4-0.3c-0.7-0.5-1.5-0.8-2.5-0.8C-110,142.2-110.1,142.2-110.2,142.2"/>
	<path class="st28" d="M-107.7,143.4l0.6,0.6c0.2-0.1,0.4-0.2,0.5-0.4c-0.2-0.2-0.5-0.4-0.7-0.6
		C-107.5,143.1-107.6,143.2-107.7,143.4"/>
	
		<linearGradient id="SVGID_16_" gradientUnits="userSpaceOnUse" x1="-606.1132" y1="-230.8307" x2="-605.9762" y2="-231.2637" gradientTransform="matrix(32.4594 0 0 -4.2491 19564.5137 -839.4417)">
		<stop  offset="0" style="stop-color:#97D6EE"/>
		<stop  offset="0.703" style="stop-color:#55C1EA"/>
		<stop  offset="1" style="stop-color:#55C1EA"/>
	</linearGradient>
	<path class="st29" d="M-110.2,142.2h0.3c0.9,0,1.8,0.3,2.5,0.8c0.8-0.6,1.7-0.8,3-0.8h-6.2H-110.2"/>
	
		<linearGradient id="SVGID_17_" gradientUnits="userSpaceOnUse" x1="-603.6006" y1="-217.3669" x2="-603.4686" y2="-217.1548" gradientTransform="matrix(26.4722 0 0 -7.484 15871.6514 -1483.1879)">
		<stop  offset="0" style="stop-color:#7ACCEC"/>
		<stop  offset="1" style="stop-color:#3FB7ED"/>
	</linearGradient>
	<path class="st30" d="M-104.4,142.2c-1.3,0-2.2,0.2-3,0.8c0.3,0.2,0.5,0.4,0.7,0.6c1.1-0.7,2.1-1.1,3.2-1.3
		c0.4-0.1,0.8-0.1,1.2-0.1H-104.4L-104.4,142.2z"/>
	
		<linearGradient id="SVGID_18_" gradientUnits="userSpaceOnUse" x1="-612.5732" y1="-198.2794" x2="-612.5732" y2="-198.0464" gradientTransform="matrix(52.0449 0 0 80.6355 31793.748 16131.2559)">
		<stop  offset="0" style="stop-color:#1DA7E7"/>
		<stop  offset="1" style="stop-color:#37ABE7;stop-opacity:0"/>
	</linearGradient>
	<path class="st31" d="M-89.1,153.2c0.6-1.7,1.2-3.8,2-6.3c0.7-2.3,2-4,4.3-4.7c0.1-0.1,0.1-0.3,0.2-0.4c-3.8,0.2-5.6,2.2-6.5,5.1
		c-1.6,5-2.5,8.3-3.5,10.4C-91.5,156.2-90.3,154.8-89.1,153.2"/>
	<path d="M-83.5,159.4h-0.4v1.4h-0.2v-1.4h-0.4v-0.2h1V159.4z M-81.7,160.8h-0.2v-1v-0.3v0.1l-0.5,1.2h-0.1l-0.5-1.2v-0.2v1.3h-0.2
		v-1.5h0.2l0.5,1.1c0,0.1,0.1,0.1,0.1,0.2c0-0.1,0.1-0.1,0.1-0.2l0.5-1.1h0.2L-81.7,160.8L-81.7,160.8z"/>
</g>
</svg>
