<svg id="Layer_1" xmlns="http://www.w3.org/2000/svg" viewBox="-224 226 50 50"><style>.st0{fill:#0068a8}.st1{fill:#03c2e0}</style><path class="st0" d="M-199 269.5c-10.2 0-18.5-8.3-18.5-18.5s8.3-18.5 18.5-18.5c5 0 9.6 2 13 5.3l4.5-4.6c-4.5-4.4-10.7-7.1-17.5-7.1-13.8 0-25 11.2-25 25s11.2 25 25 25c6.9 0 13.1-2.8 17.6-7.3l-4.5-4.6c-3.4 3.3-8 5.3-13.1 5.3z"/><path class="st1" d="M-174 251c0-7-2.9-13.3-7.5-17.9l-4.5 4.6c3.4 3.4 5.6 8.1 5.6 13.3 0 5.1-2.1 9.8-5.5 13.2l4.5 4.6c4.6-4.6 7.4-10.9 7.4-17.8z"/></svg>