<?xml version="1.0" encoding="UTF-8"?>
<svg width="50px" height="50px" viewBox="0 0 50 50" version="1.1" xmlns="http://www.w3.org/2000/svg" xmlns:xlink="http://www.w3.org/1999/xlink">
    <!-- Generator: Sketch 43.1 (39012) - http://www.bohemiancoding.com/sketch -->
    <title>Artboard Copy 13</title>
    <desc>Created with Sketch.</desc>
    <defs></defs>
    <g id="Page-1" stroke="none" stroke-width="1" fill="none" fill-rule="evenodd">
        <g id="Artboard-Copy-13">
            <rect id="Rectangle-Copy-5" fill="#16A085" x="0" y="0" width="50" height="50" rx="5"></rect>
            <path d="M10.9609375,27.4453125 C11.0338545,27.9713568 11.1770823,28.364582 11.390625,28.625 C11.781252,29.0989607 12.4505161,29.3359375 13.3984375,29.3359375 C13.9661487,29.3359375 14.4270816,29.2734381 14.78125,29.1484375 C15.4531284,28.908853 15.7890625,28.4635449 15.7890625,27.8125 C15.7890625,27.4322898 15.6223975,27.1380219 15.2890625,26.9296875 C14.9557275,26.7265615 14.4322952,26.5468758 13.71875,26.390625 L12.5,26.1171875 C11.3020773,25.8463528 10.4739606,25.5520849 10.015625,25.234375 C9.23957945,24.7031223 8.8515625,23.8724015 8.8515625,22.7421875 C8.8515625,21.7109323 9.22655875,20.8541701 9.9765625,20.171875 C10.7265662,19.4895799 11.8281177,19.1484375 13.28125,19.1484375 C14.4947977,19.1484375 15.5299436,19.4700489 16.3867188,20.1132812 C17.2434939,20.7565136 17.6927081,21.690098 17.734375,22.9140625 L15.421875,22.9140625 C15.3802081,22.2213507 15.0781278,21.7291681 14.515625,21.4375 C14.1406231,21.2447907 13.674482,21.1484375 13.1171875,21.1484375 C12.4973927,21.1484375 12.002606,21.2734362 11.6328125,21.5234375 C11.263019,21.7734388 11.078125,22.1223936 11.078125,22.5703125 C11.078125,22.9817729 11.2604148,23.2890615 11.625,23.4921875 C11.8593762,23.6276048 12.3593712,23.7864574 13.125,23.96875 L15.109375,24.4453125 C15.979171,24.6536469 16.6354145,24.9322899 17.078125,25.28125 C17.7656284,25.8229194 18.109375,26.6067657 18.109375,27.6328125 C18.109375,28.6849011 17.7070353,29.5585903 16.9023438,30.2539062 C16.0976522,30.9492222 14.9609448,31.296875 13.4921875,31.296875 C11.99218,31.296875 10.8125043,30.9544305 9.953125,30.2695312 C9.0937457,29.584632 8.6640625,28.6432352 8.6640625,27.4453125 L10.9609375,27.4453125 Z M22.2265625,21.484375 L22.2265625,29 L24.4453125,29 C25.5807348,29 26.3723936,28.4401098 26.8203125,27.3203125 C27.0651054,26.7057261 27.1875,25.9739626 27.1875,25.125 C27.1875,23.9531191 27.0039081,23.0533886 26.6367188,22.4257812 C26.2695294,21.7981739 25.539068,21.484375 24.4453125,21.484375 L22.2265625,21.484375 Z M26.6328125,19.734375 C27.4401082,20.0000013 28.0937475,20.4869756 28.59375,21.1953125 C28.9947937,21.768232 29.2682284,22.3880175 29.4140625,23.0546875 C29.5598966,23.7213575 29.6328125,24.3567678 29.6328125,24.9609375 C29.6328125,26.4921952 29.3255239,27.7890572 28.7109375,28.8515625 C27.8776,30.2838613 26.5911545,31 24.8515625,31 L19.890625,31 L19.890625,19.484375 L24.8515625,19.484375 C25.5651077,19.4947917 26.1588518,19.5781242 26.6328125,19.734375 Z M37.4570312,21.8671875 C37.1419255,21.6119779 36.7005237,21.484375 36.1328125,21.484375 L33.890625,21.484375 L33.890625,24.875 L36.1328125,24.875 C36.7005237,24.875 37.1419255,24.7369805 37.4570312,24.4609375 C37.772137,24.1848945 37.9296875,23.7473988 37.9296875,23.1484375 C37.9296875,22.5494762 37.772137,22.1223971 37.4570312,21.8671875 Z M39.28125,26.015625 C38.5937466,26.5781278 37.6119855,26.859375 36.3359375,26.859375 L33.890625,26.859375 L33.890625,31 L31.5,31 L31.5,19.484375 L36.515625,19.484375 C37.6718808,19.484375 38.5937466,19.781247 39.28125,20.375 C39.9687534,20.968753 40.3125,21.8880146 40.3125,23.1328125 C40.3125,24.4921943 39.9687534,25.4531222 39.28125,26.015625 Z" id="SDP" fill="#FFFFFF"></path>
        </g>
    </g>
</svg>