<?xml version="1.0" encoding="UTF-8"?>
<svg width="50px" height="50px" viewBox="0 0 50 50" version="1.1" xmlns="http://www.w3.org/2000/svg" xmlns:xlink="http://www.w3.org/1999/xlink">
    <!-- Generator: Sketch 48.2 (47327) - http://www.bohemiancoding.com/sketch -->
    <title>Group</title>
    <desc>Created with Sketch.</desc>
    <defs></defs>
    <g id="Artboard-2" stroke="none" stroke-width="1" fill="none" fill-rule="evenodd">
        <g id="Group">
            <rect id="Rectangle-4" fill="#333333" x="0" y="0" width="50" height="50"></rect>
            <path d="M10.257,21.162 L10.257,17.95 L8.409,17.95 L8.409,21.162 L6.605,21.162 L6.605,13.539 L8.409,13.539 L8.409,16.465 L10.257,16.465 L10.257,13.539 L12.061,13.539 L12.061,21.162 L10.257,21.162 Z M14.91,18.753 C15.031,19.71 15.57,20.084 16.318,20.084 C16.846,20.084 17.352,19.897 17.814,19.6 L18.507,20.546 C17.957,21.019 17.165,21.349 16.175,21.349 C14.173,21.349 13.139,20.062 13.139,18.247 C13.139,16.52 14.151,15.123 15.988,15.123 C17.66,15.123 18.727,16.245 18.727,18.126 C18.727,18.324 18.716,18.577 18.694,18.753 L14.91,18.753 Z M15.988,16.289 C15.372,16.289 14.965,16.729 14.888,17.697 L17.033,17.697 C17.022,16.85 16.725,16.289 15.988,16.289 Z M23.05,13 L23.05,19.325 C23.05,19.798 23.336,19.974 23.798,19.974 C24.106,19.974 24.392,19.897 24.634,19.798 L25.041,20.964 C24.656,21.173 24.106,21.349 23.358,21.349 C21.95,21.349 21.312,20.48 21.312,19.105 L21.312,14.188 L19.596,14.188 L19.596,13 L23.05,13 Z M29.65,13 L29.65,19.325 C29.65,19.798 29.936,19.974 30.398,19.974 C30.706,19.974 30.992,19.897 31.234,19.798 L31.641,20.964 C31.256,21.173 30.706,21.349 29.958,21.349 C28.55,21.349 27.912,20.48 27.912,19.105 L27.912,14.188 L26.196,14.188 L26.196,13 L29.65,13 Z M35.733,15.123 C37.537,15.123 38.571,16.355 38.571,18.225 C38.571,20.183 37.526,21.349 35.733,21.349 C33.94,21.349 32.895,20.205 32.895,18.236 C32.895,16.377 33.94,15.123 35.733,15.123 Z M35.733,16.41 C35.018,16.41 34.688,16.96 34.688,18.236 C34.688,19.534 35.018,20.073 35.733,20.073 C36.448,20.073 36.778,19.534 36.778,18.225 C36.778,16.96 36.448,16.41 35.733,16.41 Z M42.333,18.896 C43.026,18.896 43.532,19.413 43.532,20.084 C43.532,20.524 43.378,20.887 43.059,21.602 L42.267,23.395 L41.101,23.395 L41.662,21.063 C41.332,20.854 41.145,20.491 41.145,20.073 C41.145,19.413 41.651,18.896 42.333,18.896 Z M12.666,29.539 L11.775,37.162 L9.905,37.162 L9.344,31.706 L8.728,37.162 L6.825,37.162 L6,29.539 L7.683,29.539 L7.947,35.622 L8.574,30.419 L10.136,30.419 L10.719,35.622 L11.093,29.539 L12.666,29.539 Z M15.933,31.123 C17.737,31.123 18.771,32.355 18.771,34.225 C18.771,36.183 17.726,37.349 15.933,37.349 C14.14,37.349 13.095,36.205 13.095,34.236 C13.095,32.377 14.14,31.123 15.933,31.123 Z M15.933,32.41 C15.218,32.41 14.888,32.96 14.888,34.236 C14.888,35.534 15.218,36.073 15.933,36.073 C16.648,36.073 16.978,35.534 16.978,34.225 C16.978,32.96 16.648,32.41 15.933,32.41 Z M24.458,31.145 C24.854,31.145 25.151,31.211 25.426,31.321 L25.107,33.763 L24.007,33.763 L24.007,32.696 C23.347,32.806 22.83,33.455 22.566,34.324 L22.566,35.996 L23.721,35.996 L23.721,37.162 L20.058,37.162 L20.058,35.996 L20.828,35.996 L20.828,32.476 L20.058,32.476 L20.058,31.321 L22.159,31.321 L22.467,32.63 C22.885,31.629 23.523,31.145 24.458,31.145 Z M29.65,29 L29.65,35.325 C29.65,35.798 29.936,35.974 30.398,35.974 C30.706,35.974 30.992,35.897 31.234,35.798 L31.641,36.964 C31.256,37.173 30.706,37.349 29.958,37.349 C28.55,37.349 27.912,36.48 27.912,35.105 L27.912,30.188 L26.196,30.188 L26.196,29 L29.65,29 Z M36.525,28.813 L38.263,29 L38.263,37.162 L36.723,37.162 L36.635,36.524 C36.316,36.975 35.788,37.349 35.018,37.349 C33.566,37.349 32.873,36.106 32.873,34.225 C32.873,32.421 33.764,31.123 35.205,31.123 C35.722,31.123 36.173,31.31 36.525,31.673 L36.525,28.813 Z M35.667,32.399 C35.062,32.399 34.666,32.927 34.666,34.236 C34.666,35.677 35.04,36.073 35.568,36.073 C35.964,36.073 36.272,35.82 36.525,35.402 L36.525,32.883 C36.283,32.575 36.03,32.399 35.667,32.399 Z M43.257,29.539 L43.037,34.357 L41.64,34.357 L41.409,29.539 L43.257,29.539 Z M42.333,35.358 C42.894,35.358 43.323,35.809 43.323,36.348 C43.323,36.898 42.894,37.349 42.333,37.349 C41.783,37.349 41.343,36.898 41.343,36.348 C41.343,35.809 41.783,35.358 42.333,35.358 Z" id="Hello,-World!" fill="#FFFFFF"></path>
        </g>
    </g>
</svg>